<?xml version="1.0" encoding="UTF-8" standalone="no"?>
<!-- Created with Inkscape (http://www.inkscape.org/) -->

<svg
   xmlns:ns0="http://www.iki.fi/pav/software/textext/"
   xmlns:dc="http://purl.org/dc/elements/1.1/"
   xmlns:cc="http://creativecommons.org/ns#"
   xmlns:rdf="http://www.w3.org/1999/02/22-rdf-syntax-ns#"
   xmlns:svg="http://www.w3.org/2000/svg"
   xmlns="http://www.w3.org/2000/svg"
   xmlns:xlink="http://www.w3.org/1999/xlink"
   xmlns:sodipodi="http://sodipodi.sourceforge.net/DTD/sodipodi-0.dtd"
   xmlns:inkscape="http://www.inkscape.org/namespaces/inkscape"
   id="svg2"
   version="1.1"
   inkscape:version="0.48.2 r9819"
   width="272.5"
   height="221.25"
   xml:space="preserve"
   sodipodi:docname="fig-tourelle.svg"><sodipodi:namedview
     pagecolor="#ffffff"
     bordercolor="#666666"
     borderopacity="1"
     objecttolerance="10"
     gridtolerance="10"
     guidetolerance="10"
     inkscape:pageopacity="0"
     inkscape:pageshadow="2"
     inkscape:window-width="1280"
     inkscape:window-height="752"
     id="namedview4"
     showgrid="false"
     inkscape:zoom="1.5084945"
     inkscape:cx="152.58223"
     inkscape:cy="53.708739"
     inkscape:window-x="0"
     inkscape:window-y="0"
     inkscape:window-maximized="1"
     inkscape:current-layer="g10" /><metadata
     id="metadata8"><rdf:RDF><cc:Work
         rdf:about=""><dc:format>image/svg+xml</dc:format><dc:type
           rdf:resource="http://purl.org/dc/dcmitype/StillImage" /><dc:title /></cc:Work></rdf:RDF></metadata><defs
     id="defs6"><marker
       inkscape:stockid="Arrow1Mstart"
       orient="auto"
       refY="0.0"
       refX="0.0"
       id="Arrow1Mstart"
       style="overflow:visible"><path
         id="path3878"
         d="M 0.0,0.0 L 5.0,-5.0 L -12.5,0.0 L 5.0,5.0 L 0.0,0.0 z "
         style="fill-rule:evenodd;stroke:#000000;stroke-width:1.0pt;marker-start:none"
         transform="scale(0.4) translate(10,0)" /></marker><marker
       inkscape:stockid="Arrow1Lstart"
       orient="auto"
       refY="0.0"
       refX="0.0"
       id="Arrow1Lstart"
       style="overflow:visible"><path
         id="path3872"
         d="M 0.0,0.0 L 5.0,-5.0 L -12.5,0.0 L 5.0,5.0 L 0.0,0.0 z "
         style="fill-rule:evenodd;stroke:#000000;stroke-width:1.0pt;marker-start:none"
         transform="scale(0.8) translate(12.5,0)" /></marker><marker
       inkscape:stockid="Arrow1Mend"
       orient="auto"
       refY="0.0"
       refX="0.0"
       id="Arrow1Mend"
       style="overflow:visible;"><path
         id="path3881"
         d="M 0.0,0.0 L 5.0,-5.0 L -12.5,0.0 L 5.0,5.0 L 0.0,0.0 z "
         style="fill-rule:evenodd;stroke:#000000;stroke-width:1.0pt;marker-start:none;"
         transform="scale(0.4) rotate(180) translate(10,0)" /></marker><clipPath
       clipPathUnits="userSpaceOnUse"
       id="clipPath22"><path
         d="M 0,1770 0,0 l 2180,0 0,1770 -2180,0 z m 753.014,-1292.833 -21.416,30.865 -60.471,-42.203 57.321,16.377 -35.904,-47.873 60.47,42.834 z"
         clip-rule="evenodd"
         id="path24" /></clipPath><clipPath
       clipPathUnits="userSpaceOnUse"
       id="clipPath38"><path
         d="M 0,1770 0,0 l 2180,0 0,1770 -2180,0 z m 310.824,-326.57 -19.526,-32.75 64.249,-37.17 -39.053,44.73 57.95,-11.97 -63.62,37.16 z"
         clip-rule="evenodd"
         id="path40" /></clipPath><clipPath
       clipPathUnits="userSpaceOnUse"
       id="clipPath82"><path
         d="M 0,1770 0,0 l 2180,0 0,1770 -2180,0 z m 1264.49,-820.408 28.98,23.936 -60.47,73.072 34.01,-70.552 -62.99,45.982 60.47,-72.438 z"
         clip-rule="evenodd"
         id="path84" /></clipPath><marker
       inkscape:stockid="Arrow1Mstart"
       orient="auto"
       refY="0"
       refX="0"
       id="Arrow1Mstart-1"
       style="overflow:visible"><path
         inkscape:connector-curvature="0"
         id="path3878-4"
         d="M 0,0 5,-5 -12.5,0 5,5 0,0 z"
         style="fill-rule:evenodd;stroke:#000000;stroke-width:1pt;marker-start:none"
         transform="matrix(0.4,0,0,0.4,4,0)" /></marker><marker
       inkscape:stockid="Arrow1Mend"
       orient="auto"
       refY="0"
       refX="0"
       id="Arrow1Mend-7"
       style="overflow:visible"><path
         inkscape:connector-curvature="0"
         id="path3881-7"
         d="M 0,0 5,-5 -12.5,0 5,5 0,0 z"
         style="fill-rule:evenodd;stroke:#000000;stroke-width:1pt;marker-start:none"
         transform="matrix(-0.4,0,0,-0.4,-4,0)" /></marker><marker
       inkscape:stockid="Arrow1Mend"
       orient="auto"
       refY="0"
       refX="0"
       id="marker6762"
       style="overflow:visible"><path
         inkscape:connector-curvature="0"
         id="path6764"
         d="M 0,0 5,-5 -12.5,0 5,5 0,0 z"
         style="fill-rule:evenodd;stroke:#000000;stroke-width:1pt;marker-start:none"
         transform="matrix(-0.4,0,0,-0.4,-4,0)" /></marker></defs><g
     id="g10"
     inkscape:groupmode="layer"
     inkscape:label="fig-tourelle"
     transform="matrix(1.25,0,0,-1.25,0,221.25)"><g
       id="g12"
       transform="scale(0.1,0.1)"><g
         id="g14"><path
           inkscape:connector-curvature="0"
           d="M 1096.94,1733.82 7.21265,1116.52"
           style="fill:none;stroke:#000000;stroke-width:4.72424984;stroke-linecap:butt;stroke-linejoin:miter;stroke-miterlimit:10;stroke-opacity:1;stroke-dasharray:9.4485, 28.3455;stroke-dashoffset:28.3455"
           id="path16" /></g><g
         id="g18"><g
           id="g20"
           clip-path="url(#clipPath22)"><path
             inkscape:connector-curvature="0"
             d="m 451.322,486.599 c 38.205,-36.382 88.941,-56.675 141.698,-56.675 52.757,0 103.493,20.294 141.699,56.676"
             style="fill:none;stroke:#000000;stroke-width:4.72424984;stroke-linecap:butt;stroke-linejoin:miter;stroke-miterlimit:10;stroke-opacity:1;stroke-dasharray:none"
             id="path26" /></g></g><g
         id="g28"><path
           inkscape:connector-curvature="0"
           d="m 692.544,434.333 35.904,47.873 -57.321,-16.377 21.417,-31.496"
           style="fill:#000000;fill-opacity:1;fill-rule:evenodd;stroke:none"
           id="path30" /><path
           inkscape:connector-curvature="0"
           d="m 692.544,434.333 35.904,47.873 -57.321,-16.377 21.417,-31.496 z"
           style="fill:none;stroke:#000000;stroke-width:4.72424984;stroke-linecap:butt;stroke-linejoin:miter;stroke-miterlimit:10;stroke-opacity:1;stroke-dasharray:none"
           id="path32" /></g><g
         id="g34"><g
           id="g36"
           clip-path="url(#clipPath38)"><path
             inkscape:connector-curvature="0"
             d="m 366.231,1223.6 c 20.859,22.29 32.465,51.67 32.465,82.2 0,54.45 -36.575,102.12 -89.173,116.21"
             style="fill:none;stroke:#000000;stroke-width:4.72424984;stroke-linecap:butt;stroke-linejoin:miter;stroke-miterlimit:10;stroke-opacity:1;stroke-dasharray:none"
             id="path42" /></g></g><g
         id="g44"><path
           inkscape:connector-curvature="0"
           d="m 374.444,1406.27 -57.95,11.97 39.053,-44.73 18.897,32.76"
           style="fill:#000000;fill-opacity:1;fill-rule:evenodd;stroke:none"
           id="path46" /><path
           inkscape:connector-curvature="0"
           d="m 374.444,1406.27 -57.95,11.97 39.053,-44.73 18.897,32.76 z"
           style="fill:none;stroke:#000000;stroke-width:4.72424984;stroke-linecap:butt;stroke-linejoin:miter;stroke-miterlimit:10;stroke-opacity:1;stroke-dasharray:none"
           id="path48" /><path
           inkscape:connector-curvature="0"
           d="M 1140.4,625.193 50.6758,7.89136"
           style="fill:none;stroke:#000000;stroke-width:4.72424984;stroke-linecap:butt;stroke-linejoin:miter;stroke-miterlimit:10;stroke-opacity:1;stroke-dasharray:9.4485, 28.3455;stroke-dashoffset:28.3455"
           id="path50" /><path
           inkscape:connector-curvature="0"
           d="M 749.235,1462.33 502.314,1319.34"
           style="fill:none;stroke:#000000;stroke-width:9.44849968;stroke-linecap:butt;stroke-linejoin:miter;stroke-miterlimit:10;stroke-opacity:1;stroke-dasharray:none"
           id="path52" /><path
           inkscape:connector-curvature="0"
           d="M 1888.09,879.043 798.367,261.741"
           style="fill:none;stroke:#000000;stroke-width:4.72424984;stroke-linecap:butt;stroke-linejoin:miter;stroke-miterlimit:10;stroke-opacity:1;stroke-dasharray:9.4485, 28.3455;stroke-dashoffset:28.3455"
           id="path54" /><path
           inkscape:connector-curvature="0"
           d="M 993.636,1139.19 867.656,1063.6 1075.52,811.644 1195.2,887.232 993.636,1139.19 z"
           style="fill:none;stroke:#000000;stroke-width:9.44849968;stroke-linecap:butt;stroke-linejoin:miter;stroke-miterlimit:10;stroke-opacity:1;stroke-dasharray:none"
           id="path56" /><path
           inkscape:connector-curvature="0"
           d="m 867.656,1063.6 12.598,-88.182 188.966,-239.362 0,88.186"
           style="fill:none;stroke:#000000;stroke-width:9.44849968;stroke-linecap:butt;stroke-linejoin:miter;stroke-miterlimit:10;stroke-opacity:1;stroke-dasharray:none"
           id="path58" /><path
           inkscape:connector-curvature="0"
           d="M 1132.21,811.644 1295.99,610.076"
           style="fill:none;stroke:#000000;stroke-width:9.44849968;stroke-linecap:butt;stroke-linejoin:miter;stroke-miterlimit:10;stroke-opacity:1;stroke-dasharray:none"
           id="path60" /><path
           inkscape:connector-curvature="0"
           d="M 1453.46,572.282 1377.88,662.357 1233,572.282 1321.18,465.199"
           style="fill:none;stroke:#000000;stroke-width:9.44849968;stroke-linecap:butt;stroke-linejoin:miter;stroke-miterlimit:10;stroke-opacity:1;stroke-dasharray:none"
           id="path62" /><path
           inkscape:connector-curvature="0"
           d="M 382.633,1755.86 1510.15,332.29 l 0,6.299"
           style="fill:none;stroke:#000000;stroke-width:4.72424984;stroke-linecap:butt;stroke-linejoin:miter;stroke-miterlimit:10;stroke-opacity:1;stroke-dasharray:9.4485, 28.3455;stroke-dashoffset:28.3455"
           id="path64" /><path
           inkscape:connector-curvature="0"
           d="m 968.44,855.737 0,100.784 114.64,70.549"
           style="fill:none;stroke:#000000;stroke-width:9.44849968;stroke-linecap:butt;stroke-linejoin:miter;stroke-miterlimit:10;stroke-opacity:1;stroke-dasharray:none"
           id="path66" /><path
           inkscape:connector-curvature="0"
           d="m 1069.22,713.379 125.98,84.407 -0.63,95.745"
           style="fill:none;stroke:#000000;stroke-width:9.44849968;stroke-linecap:butt;stroke-linejoin:miter;stroke-miterlimit:10;stroke-opacity:1;stroke-dasharray:none"
           id="path68" /><path
           inkscape:connector-curvature="0"
           d="M 816.634,1577.6 906.71,1468 720.889,1342.02 l 179.522,-233.06 0,6.3"
           style="fill:none;stroke:#000000;stroke-width:9.44849968;stroke-linecap:butt;stroke-linejoin:miter;stroke-miterlimit:10;stroke-opacity:1;stroke-dasharray:none"
           id="path70" /><path
           inkscape:connector-curvature="0"
           d="m 454.442,1381.07 -125.98,-75.58 0,-185.83 270.227,160.63 0,-403.137"
           style="fill:none;stroke:#000000;stroke-width:9.44849968;stroke-linecap:butt;stroke-linejoin:miter;stroke-miterlimit:10;stroke-opacity:1;stroke-dasharray:none"
           id="path72" /><path
           inkscape:connector-curvature="0"
           d="m 756.794,1544.85 71.178,44.09"
           style="fill:none;stroke:#000000;stroke-width:9.44849968;stroke-linecap:butt;stroke-linejoin:miter;stroke-miterlimit:10;stroke-opacity:1;stroke-dasharray:none"
           id="path74" /><path
           inkscape:connector-curvature="0"
           d="m 599.319,540.787 0,-260.149"
           style="fill:none;stroke:#000000;stroke-width:9.44849968;stroke-linecap:butt;stroke-linejoin:miter;stroke-miterlimit:10;stroke-opacity:1;stroke-dasharray:none"
           id="path76" /></g><g
         id="g78"><g
           id="g80"
           clip-path="url(#clipPath82)"><path
             inkscape:connector-curvature="0"
             d="M 1131.58,1138.56 1273.31,968.489"
             style="fill:none;stroke:#000000;stroke-width:4.72424984;stroke-linecap:butt;stroke-linejoin:miter;stroke-miterlimit:10;stroke-opacity:1;stroke-dasharray:none"
             id="path86" /></g></g><g
         id="g88"><path
           inkscape:connector-curvature="0"
           d="m 1204.02,1022.03 62.99,-45.982 -34.01,70.552 -28.98,-24.57"
           style="fill:#000000;fill-opacity:1;fill-rule:evenodd;stroke:none"
           id="path90" /><path
           inkscape:connector-curvature="0"
           d="m 1204.02,1022.03 62.99,-45.982 -34.01,70.552 -28.98,-24.57 z"
           style="fill:none;stroke:#000000;stroke-width:4.72424984;stroke-linecap:butt;stroke-linejoin:miter;stroke-miterlimit:10;stroke-opacity:1;stroke-dasharray:none"
           id="path92" /><path
           inkscape:connector-curvature="0"
           d="m 749.235,1462.25 c 5.361,12.57 8.126,26.1 8.126,39.76 0,51.34 -38.379,94.56 -89.351,100.64"
           style="fill:none;stroke:#000000;stroke-width:9.44849968;stroke-linecap:butt;stroke-linejoin:miter;stroke-miterlimit:10;stroke-opacity:1;stroke-dasharray:none"
           id="path94" /><path
           inkscape:connector-curvature="0"
           d="m 508.648,581.059 c 19.021,-25.8 49.169,-41.028 81.222,-41.028 32.054,0 62.201,15.228 81.222,41.028"
           style="fill:none;stroke:#000000;stroke-width:9.44849968;stroke-linecap:butt;stroke-linejoin:miter;stroke-miterlimit:10;stroke-opacity:1;stroke-dasharray:none"
           id="path96" /><path
           inkscape:connector-curvature="0"
           d="m 518.097,715.227 c 19.021,-25.799 49.168,-41.028 81.222,-41.028 32.053,0 62.201,15.229 81.222,41.029"
           style="fill:none;stroke:#000000;stroke-width:9.44849968;stroke-linecap:butt;stroke-linejoin:miter;stroke-miterlimit:10;stroke-opacity:1;stroke-dasharray:none"
           id="path98" /><path
           inkscape:connector-curvature="0"
           d="m 625.812,1390.54 c 3.065,9.78 4.624,19.97 4.624,30.22 0,55.8 -45.236,101.03 -101.036,101.03 -0.235,0 -0.471,0 -0.705,0"
           style="fill:none;stroke:#000000;stroke-width:9.44849968;stroke-linecap:butt;stroke-linejoin:miter;stroke-miterlimit:10;stroke-opacity:1;stroke-dasharray:none"
           id="path100" /><path
           inkscape:connector-curvature="0"
           d="m 420.742,1460.26 c 19.282,11.13 53.103,-11.35 75.541,-50.21 22.438,-38.87 24.998,-79.4 5.716,-90.53 -19.281,-11.13 -53.103,11.35 -75.541,50.21 -22.438,38.87 -24.997,79.4 -5.716,90.53 z"
           style="fill:none;stroke:#000000;stroke-width:9.44849968;stroke-linecap:butt;stroke-linejoin:miter;stroke-miterlimit:10;stroke-opacity:1;stroke-dasharray:none"
           id="path102" /><path
           inkscape:connector-curvature="0"
           d="m 676.167,861.406 c 0,-22.265 -36.381,-40.314 -81.258,-40.314 -44.877,0 -81.257,18.049 -81.257,40.314 0,22.264 36.38,40.313 81.257,40.313 44.877,0 81.258,-18.049 81.258,-40.313 z"
           style="fill:none;stroke:#000000;stroke-width:9.44849968;stroke-linecap:butt;stroke-linejoin:miter;stroke-miterlimit:10;stroke-opacity:1;stroke-dasharray:none"
           id="path104" /><path
           inkscape:connector-curvature="0"
           d="M 667.978,1602.8 420.427,1460.44"
           style="fill:none;stroke:#000000;stroke-width:9.44849968;stroke-linecap:butt;stroke-linejoin:miter;stroke-miterlimit:10;stroke-opacity:1;stroke-dasharray:none"
           id="path106" /><path
           inkscape:connector-curvature="0"
           d="M 589.87,296.385 569.713,214.499"
           style="fill:none;stroke:#000000;stroke-width:9.44849968;stroke-linecap:butt;stroke-linejoin:miter;stroke-miterlimit:10;stroke-opacity:1;stroke-dasharray:none"
           id="path108" /><path
           inkscape:connector-curvature="0"
           d="M 630.814,296.385 610.657,214.499"
           style="fill:none;stroke:#000000;stroke-width:9.44849968;stroke-linecap:butt;stroke-linejoin:miter;stroke-miterlimit:10;stroke-opacity:1;stroke-dasharray:none"
           id="path110" /><path
           inkscape:connector-curvature="0"
           d="M 671.127,296.385 650.97,214.499"
           style="fill:none;stroke:#000000;stroke-width:9.44849968;stroke-linecap:butt;stroke-linejoin:miter;stroke-miterlimit:10;stroke-opacity:1;stroke-dasharray:none"
           id="path112" /><path
           inkscape:connector-curvature="0"
           d="m 528.77,296.385 142.357,0"
           style="fill:none;stroke:#000000;stroke-width:9.44849968;stroke-linecap:butt;stroke-linejoin:miter;stroke-miterlimit:10;stroke-opacity:1;stroke-dasharray:none"
           id="path114" /><path
           inkscape:connector-curvature="0"
           d="M 548.927,296.385 528.77,214.499"
           style="fill:none;stroke:#000000;stroke-width:9.44849968;stroke-linecap:butt;stroke-linejoin:miter;stroke-miterlimit:10;stroke-opacity:1;stroke-dasharray:none"
           id="path116" /><path
           inkscape:connector-curvature="0"
           d="m 675.537,584.88 0,285.344"
           style="fill:none;stroke:#000000;stroke-width:9.44849968;stroke-linecap:butt;stroke-linejoin:miter;stroke-miterlimit:10;stroke-opacity:1;stroke-dasharray:none"
           id="path118" /><path
           inkscape:connector-curvature="0"
           d="m 508.613,577.321 0,284.715"
           style="fill:none;stroke:#000000;stroke-width:9.44849968;stroke-linecap:butt;stroke-linejoin:miter;stroke-miterlimit:10;stroke-opacity:1;stroke-dasharray:none"
           id="path120" /></g></g><g
       id="g4869"
       transform="translate(8,1.6)"
       style="stroke-width:0.80000001;stroke-miterlimit:4;stroke-dasharray:none"><path
         inkscape:connector-curvature="0"
         id="path3097"
         d="m 65.981047,11.136928 -14.318913,18.82672 0,21.213208"
         style="fill:none;stroke:#000000;stroke-width:0.80000001;stroke-linecap:butt;stroke-linejoin:miter;stroke-miterlimit:4;stroke-opacity:1;stroke-dasharray:none;marker-start:url(#Arrow1Mstart);marker-end:url(#Arrow1Mend)" /><path
         inkscape:connector-curvature="0"
         id="path3099"
         d="m 51.9273,30.219808 18.296388,10.6066"
         style="fill:none;stroke:#000000;stroke-width:0.80000001;stroke-linecap:butt;stroke-linejoin:miter;stroke-miterlimit:4;stroke-opacity:1;stroke-dasharray:none;marker-end:url(#Arrow1Mend)" /></g><g
       transform="matrix(1.1693035,0,0,-1.1693035,-204.28426,168.48144)"
       ns0:text="$x_0$\n"
       ns0:preamble=""
       id="g4942"><defs
   id="defs4944">
<g
   id="g4946">
<symbol
   style="overflow:visible"
   overflow="visible"
   id="textext-cf9b9b78-0">
<path
   inkscape:connector-curvature="0"
   style="stroke:none"
   d=""
   id="path4949" />
</symbol>
<symbol
   style="overflow:visible"
   overflow="visible"
   id="textext-cf9b9b78-1">
<path
   inkscape:connector-curvature="0"
   style="stroke:none"
   d="M 3.328125,-3.015625 C 3.390625,-3.265625 3.625,-4.1875 4.3125,-4.1875 c 0.046875,0 0.296875,0 0.5,0.125 C 4.53125,-4 4.34375,-3.765625 4.34375,-3.515625 c 0,0.15625 0.109375,0.34375 0.375,0.34375 0.21875,0 0.53125,-0.171875 0.53125,-0.578125 0,-0.515625 -0.578125,-0.65625 -0.921875,-0.65625 -0.578125,0 -0.921875,0.53125 -1.046875,0.75 -0.25,-0.65625 -0.78125,-0.75 -1.078125,-0.75 -1.03125,0 -1.609375,1.28125 -1.609375,1.53125 0,0.109375 0.109375,0.109375 0.125,0.109375 0.078125,0 0.109375,-0.03125 0.125,-0.109375 0.34375,-1.0625 1,-1.3125 1.34375,-1.3125 0.1875,0 0.53125,0.09375 0.53125,0.671875 0,0.3125 -0.171875,0.96875 -0.53125,2.375 -0.15625,0.609375 -0.515625,1.03125 -0.953125,1.03125 -0.0625,0 -0.28125,0 -0.5,-0.125 0.25,-0.0625 0.46875,-0.265625 0.46875,-0.546875 0,-0.265625 -0.21875,-0.34375 -0.359375,-0.34375 -0.3125,0 -0.546875,0.25 -0.546875,0.578125 0,0.453125 0.484375,0.65625 0.921875,0.65625 0.671875,0 1.03125,-0.703125 1.046875,-0.75 0.125,0.359375 0.484375,0.75 1.078125,0.75 1.03125,0 1.59375,-1.28125 1.59375,-1.53125 0,-0.109375 -0.078125,-0.109375 -0.109375,-0.109375 -0.09375,0 -0.109375,0.046875 -0.140625,0.109375 -0.328125,1.078125 -1,1.3125 -1.3125,1.3125 -0.390625,0 -0.546875,-0.3125 -0.546875,-0.65625 0,-0.21875 0.046875,-0.4375 0.15625,-0.875 z"
   id="path4952" />
</symbol>
<symbol
   style="overflow:visible"
   overflow="visible"
   id="textext-cf9b9b78-2">
<path
   inkscape:connector-curvature="0"
   style="stroke:none"
   d=""
   id="path4955" />
</symbol>
<symbol
   style="overflow:visible"
   overflow="visible"
   id="textext-cf9b9b78-3">
<path
   inkscape:connector-curvature="0"
   style="stroke:none"
   d="M 3.59375,-2.21875 C 3.59375,-2.984375 3.5,-3.546875 3.1875,-4.03125 2.96875,-4.34375 2.53125,-4.625 1.984375,-4.625 c -1.625,0 -1.625,1.90625 -1.625,2.40625 0,0.5 0,2.359375 1.625,2.359375 1.609375,0 1.609375,-1.859375 1.609375,-2.359375 z M 1.984375,-0.0625 c -0.328125,0 -0.75,-0.1875 -0.890625,-0.75 C 1,-1.21875 1,-1.796875 1,-2.3125 1,-2.828125 1,-3.359375 1.09375,-3.734375 1.25,-4.28125 1.6875,-4.4375 1.984375,-4.4375 c 0.375,0 0.734375,0.234375 0.859375,0.640625 0.109375,0.375 0.125,0.875 0.125,1.484375 0,0.515625 0,1.03125 -0.09375,1.46875 -0.140625,0.640625 -0.609375,0.78125 -0.890625,0.78125 z"
   id="path4958" />
</symbol>
</g>
</defs>
<g
   id="textext-cf9b9b78-4">
<g
   style="fill:#000000;fill-opacity:1"
   id="g4961">
  <use
   height="221.25"
   width="272.5"
   xlink:href="#textext-cf9b9b78-1"
   x="223.43201"
   y="134.765"
   id="use4963" />
</g>
<g
   style="fill:#000000;fill-opacity:1"
   id="g4965">
  <use
   height="221.25"
   width="272.5"
   xlink:href="#textext-cf9b9b78-3"
   x="229.12601"
   y="136.259"
   id="use4967" />
</g>
</g>
</g><g
       id="g5253"
       transform="matrix(1.1693035,0,0,-1.1693035,-186.6135,190.08575)"
       ns0:preamble=""
       ns0:text="$y_0$\n\n"><defs
   id="defs5255">
<g
   id="g5257">
<symbol
   style="overflow:visible"
   id="textext-2be498f6-0"
   overflow="visible">
<path
   inkscape:connector-curvature="0"
   id="path5260"
   d=""
   style="stroke:none" />
</symbol>
<symbol
   style="overflow:visible"
   id="textext-2be498f6-1"
   overflow="visible">
<path
   inkscape:connector-curvature="0"
   id="path5263"
   d="m 4.84375,-3.796875 c 0.046875,-0.140625 0.046875,-0.15625 0.046875,-0.234375 0,-0.171875 -0.140625,-0.265625 -0.296875,-0.265625 -0.09375,0 -0.25,0.0625 -0.34375,0.203125 -0.015625,0.0625 -0.109375,0.359375 -0.140625,0.546875 -0.078125,0.25 -0.140625,0.53125 -0.203125,0.796875 l -0.453125,1.796875 c -0.03125,0.140625 -0.46875,0.84375 -1.125,0.84375 -0.5,0 -0.609375,-0.4375 -0.609375,-0.8125 C 1.71875,-1.375 1.890625,-2 2.21875,-2.875 2.375,-3.28125 2.421875,-3.390625 2.421875,-3.59375 c 0,-0.4375 -0.3125,-0.8125 -0.8125,-0.8125 -0.953125,0 -1.3125,1.453125 -1.3125,1.53125 0,0.109375 0.09375,0.109375 0.109375,0.109375 0.109375,0 0.109375,-0.03125 0.15625,-0.1875 0.28125,-0.9375 0.671875,-1.234375 1.015625,-1.234375 0.078125,0 0.25,0 0.25,0.3125 0,0.25 -0.109375,0.515625 -0.171875,0.703125 -0.40625,1.0625 -0.578125,1.625 -0.578125,2.09375 0,0.890625 0.625,1.1875 1.21875,1.1875 0.390625,0 0.71875,-0.171875 1,-0.453125 -0.125,0.515625 -0.25,1.015625 -0.640625,1.546875 -0.265625,0.328125 -0.640625,0.625 -1.09375,0.625 -0.140625,0 -0.59375,-0.03125 -0.765625,-0.421875 0.15625,0 0.296875,0 0.421875,-0.125 C 1.328125,1.203125 1.421875,1.0625 1.421875,0.875 1.421875,0.5625 1.15625,0.53125 1.0625,0.53125 0.828125,0.53125 0.5,0.6875 0.5,1.171875 c 0,0.5 0.4375,0.875 1.0625,0.875 1.015625,0 2.046875,-0.90625 2.328125,-2.03125 z"
   style="stroke:none" />
</symbol>
<symbol
   style="overflow:visible"
   id="textext-2be498f6-2"
   overflow="visible">
<path
   inkscape:connector-curvature="0"
   id="path5266"
   d=""
   style="stroke:none" />
</symbol>
<symbol
   style="overflow:visible"
   id="textext-2be498f6-3"
   overflow="visible">
<path
   inkscape:connector-curvature="0"
   id="path5269"
   d="M 3.59375,-2.21875 C 3.59375,-2.984375 3.5,-3.546875 3.1875,-4.03125 2.96875,-4.34375 2.53125,-4.625 1.984375,-4.625 c -1.625,0 -1.625,1.90625 -1.625,2.40625 0,0.5 0,2.359375 1.625,2.359375 1.609375,0 1.609375,-1.859375 1.609375,-2.359375 z M 1.984375,-0.0625 c -0.328125,0 -0.75,-0.1875 -0.890625,-0.75 C 1,-1.21875 1,-1.796875 1,-2.3125 1,-2.828125 1,-3.359375 1.09375,-3.734375 1.25,-4.28125 1.6875,-4.4375 1.984375,-4.4375 c 0.375,0 0.734375,0.234375 0.859375,0.640625 0.109375,0.375 0.125,0.875 0.125,1.484375 0,0.515625 0,1.03125 -0.09375,1.46875 -0.140625,0.640625 -0.609375,0.78125 -0.890625,0.78125 z"
   style="stroke:none" />
</symbol>
</g>
</defs>
<g
   id="textext-2be498f6-4">
<g
   id="g5272"
   style="fill:#000000;fill-opacity:1">
  <use
   height="221.25"
   width="272.5"
   id="use5274"
   y="134.765"
   x="223.43201"
   xlink:href="#textext-2be498f6-1" />
</g>
<g
   id="g5276"
   style="fill:#000000;fill-opacity:1">
  <use
   height="221.25"
   width="272.5"
   id="use5278"
   y="136.259"
   x="228.317"
   xlink:href="#textext-2be498f6-3" />
</g>
</g>
</g><g
       ns0:text="$z_0$\n\n"
       ns0:preamble=""
       transform="matrix(1.1693035,0,0,-1.1693035,-213.051,191.96075)"
       id="g5496"><defs
   id="defs5498">
<g
   id="g5500">
<symbol
   style="overflow:visible"
   overflow="visible"
   id="textext-d946a87a-0">
<path
   inkscape:connector-curvature="0"
   style="stroke:none"
   d=""
   id="path5503" />
</symbol>
<symbol
   style="overflow:visible"
   overflow="visible"
   id="textext-d946a87a-1">
<path
   inkscape:connector-curvature="0"
   style="stroke:none"
   d="m 1.328125,-0.828125 c 0.53125,-0.578125 0.828125,-0.828125 1.1875,-1.140625 0,0 0.609375,-0.53125 0.96875,-0.890625 C 4.4375,-3.78125 4.65625,-4.265625 4.65625,-4.3125 c 0,-0.09375 -0.09375,-0.09375 -0.109375,-0.09375 -0.078125,0 -0.09375,0.015625 -0.15625,0.109375 -0.296875,0.484375 -0.5,0.640625 -0.734375,0.640625 -0.25,0 -0.359375,-0.15625 -0.515625,-0.328125 -0.1875,-0.21875 -0.359375,-0.421875 -0.6875,-0.421875 -0.75,0 -1.203125,0.921875 -1.203125,1.140625 0,0.046875 0.03125,0.109375 0.109375,0.109375 0.09375,0 0.109375,-0.046875 0.140625,-0.109375 0.1875,-0.46875 0.765625,-0.46875 0.84375,-0.46875 0.203125,0 0.390625,0.0625 0.625,0.140625 0.40625,0.15625 0.515625,0.15625 0.765625,0.15625 -0.359375,0.421875 -1.1875,1.140625 -1.375,1.296875 l -0.90625,0.84375 C 0.78125,-0.625 0.421875,-0.0625 0.421875,0.015625 c 0,0.09375 0.109375,0.09375 0.125,0.09375 0.078125,0 0.09375,-0.015625 0.15625,-0.125 0.234375,-0.359375 0.53125,-0.625 0.859375,-0.625 0.21875,0 0.328125,0.09375 0.578125,0.375 0.15625,0.21875 0.34375,0.375 0.625,0.375 1,0 1.578125,-1.265625 1.578125,-1.53125 0,-0.046875 -0.046875,-0.109375 -0.125,-0.109375 -0.09375,0 -0.109375,0.0625 -0.140625,0.140625 C 3.84375,-0.75 3.203125,-0.5625 2.875,-0.5625 c -0.1875,0 -0.375,-0.0625 -0.578125,-0.125 -0.34375,-0.125 -0.5,-0.171875 -0.703125,-0.171875 -0.015625,0 -0.171875,0 -0.265625,0.03125 z"
   id="path5506" />
</symbol>
<symbol
   style="overflow:visible"
   overflow="visible"
   id="textext-d946a87a-2">
<path
   inkscape:connector-curvature="0"
   style="stroke:none"
   d=""
   id="path5509" />
</symbol>
<symbol
   style="overflow:visible"
   overflow="visible"
   id="textext-d946a87a-3">
<path
   inkscape:connector-curvature="0"
   style="stroke:none"
   d="M 3.59375,-2.21875 C 3.59375,-2.984375 3.5,-3.546875 3.1875,-4.03125 2.96875,-4.34375 2.53125,-4.625 1.984375,-4.625 c -1.625,0 -1.625,1.90625 -1.625,2.40625 0,0.5 0,2.359375 1.625,2.359375 1.609375,0 1.609375,-1.859375 1.609375,-2.359375 z M 1.984375,-0.0625 c -0.328125,0 -0.75,-0.1875 -0.890625,-0.75 C 1,-1.21875 1,-1.796875 1,-2.3125 1,-2.828125 1,-3.359375 1.09375,-3.734375 1.25,-4.28125 1.6875,-4.4375 1.984375,-4.4375 c 0.375,0 0.734375,0.234375 0.859375,0.640625 0.109375,0.375 0.125,0.875 0.125,1.484375 0,0.515625 0,1.03125 -0.09375,1.46875 -0.140625,0.640625 -0.609375,0.78125 -0.890625,0.78125 z"
   id="path5512" />
</symbol>
</g>
</defs>
<g
   id="textext-d946a87a-4">
<g
   style="fill:#000000;fill-opacity:1"
   id="g5515">
  <use
   height="221.25"
   width="272.5"
   xlink:href="#textext-d946a87a-1"
   x="223.43201"
   y="134.765"
   id="use5517" />
</g>
<g
   style="fill:#000000;fill-opacity:1"
   id="g5519">
  <use
   height="221.25"
   width="272.5"
   xlink:href="#textext-d946a87a-3"
   x="228.065"
   y="136.259"
   id="use5521" />
</g>
</g>
</g><g
       id="g5818"
       transform="matrix(1.1693035,0,0,-1.1693035,-222.62876,215.02325)"
       ns0:preamble=""
       ns0:text="$q_1$\n\n\n"><defs
   id="defs5820">
<g
   id="g5822">
<symbol
   id="textext-c36103d8-0"
   overflow="visible"
   style="overflow:visible">
<path
   id="path5825"
   d=""
   style="stroke:none"
   inkscape:connector-curvature="0" />
</symbol>
<symbol
   id="textext-c36103d8-1"
   overflow="visible"
   style="overflow:visible">
<path
   id="path5828"
   d="m 4.5,-4.296875 c 0,-0.046875 -0.03125,-0.09375 -0.09375,-0.09375 -0.109375,0 -0.515625,0.390625 -0.671875,0.6875 C 3.515625,-4.25 3.125,-4.40625 2.796875,-4.40625 c -1.171875,0 -2.390625,1.46875 -2.390625,2.921875 0,0.96875 0.578125,1.59375 1.3125,1.59375 0.421875,0 0.8125,-0.234375 1.171875,-0.59375 -0.09375,0.34375 -0.421875,1.6875 -0.453125,1.78125 -0.078125,0.28125 -0.15625,0.3125 -0.71875,0.328125 -0.125,0 -0.21875,0 -0.21875,0.203125 0,0 0,0.109375 0.125,0.109375 0.3125,0 0.671875,-0.03125 1,-0.03125 0.328125,0 0.6875,0.03125 1.03125,0.03125 0.046875,0 0.171875,0 0.171875,-0.203125 C 3.828125,1.625 3.734375,1.625 3.5625,1.625 3.09375,1.625 3.09375,1.5625 3.09375,1.46875 3.09375,1.390625 3.109375,1.328125 3.125,1.25 z m -2.75,4.1875 c -0.609375,0 -0.640625,-0.765625 -0.640625,-0.9375 0,-0.484375 0.28125,-1.5625 0.453125,-1.984375 0.3125,-0.734375 0.828125,-1.15625 1.234375,-1.15625 0.65625,0 0.796875,0.8125 0.796875,0.875 0,0.0625 -0.546875,2.25 -0.578125,2.28125 C 2.859375,-0.75 2.296875,-0.109375 1.75,-0.109375 z"
   style="stroke:none"
   inkscape:connector-curvature="0" />
</symbol>
<symbol
   id="textext-c36103d8-2"
   overflow="visible"
   style="overflow:visible">
<path
   id="path5831"
   d=""
   style="stroke:none"
   inkscape:connector-curvature="0" />
</symbol>
<symbol
   id="textext-c36103d8-3"
   overflow="visible"
   style="overflow:visible">
<path
   id="path5834"
   d="m 2.328125,-4.4375 c 0,-0.1875 0,-0.1875 -0.203125,-0.1875 -0.453125,0.4375 -1.078125,0.4375 -1.359375,0.4375 l 0,0.25 c 0.15625,0 0.625,0 1,-0.1875 l 0,3.546875 c 0,0.234375 0,0.328125 -0.6875,0.328125 l -0.265625,0 0,0.25 c 0.125,0 0.984375,-0.03125 1.234375,-0.03125 0.21875,0 1.09375,0.03125 1.25,0.03125 l 0,-0.25 -0.265625,0 c -0.703125,0 -0.703125,-0.09375 -0.703125,-0.328125 z"
   style="stroke:none"
   inkscape:connector-curvature="0" />
</symbol>
</g>
</defs>
<g
   id="textext-c36103d8-4">
<g
   id="g5837"
   style="fill:#000000;fill-opacity:1">
  <use
   id="use5839"
   y="134.765"
   x="223.43201"
   xlink:href="#textext-c36103d8-1"
   width="272.5"
   height="221.25" />
</g>
<g
   id="g5841"
   style="fill:#000000;fill-opacity:1">
  <use
   id="use5843"
   y="136.259"
   x="227.88"
   xlink:href="#textext-c36103d8-3"
   width="272.5"
   height="221.25" />
</g>
</g>
</g><g
       ns0:text="$q_2$\n\n\n\n"
       ns0:preamble=""
       transform="matrix(1.1693035,0,0,-1.1693035,-242.7754,291.88783)"
       id="g6172"><defs
   id="defs6174">
<g
   id="g6176">
<symbol
   overflow="visible"
   id="textext-e8fd2115-0">
<path
   style="stroke:none;"
   d=""
   id="path6179" />
</symbol>
<symbol
   overflow="visible"
   id="textext-e8fd2115-1">
<path
   style="stroke:none;"
   d="M 4.5 -4.296875 C 4.5 -4.34375 4.46875 -4.390625 4.40625 -4.390625 C 4.296875 -4.390625 3.890625 -4 3.734375 -3.703125 C 3.515625 -4.25 3.125 -4.40625 2.796875 -4.40625 C 1.625 -4.40625 0.40625 -2.9375 0.40625 -1.484375 C 0.40625 -0.515625 0.984375 0.109375 1.71875 0.109375 C 2.140625 0.109375 2.53125 -0.125 2.890625 -0.484375 C 2.796875 -0.140625 2.46875 1.203125 2.4375 1.296875 C 2.359375 1.578125 2.28125 1.609375 1.71875 1.625 C 1.59375 1.625 1.5 1.625 1.5 1.828125 C 1.5 1.828125 1.5 1.9375 1.625 1.9375 C 1.9375 1.9375 2.296875 1.90625 2.625 1.90625 C 2.953125 1.90625 3.3125 1.9375 3.65625 1.9375 C 3.703125 1.9375 3.828125 1.9375 3.828125 1.734375 C 3.828125 1.625 3.734375 1.625 3.5625 1.625 C 3.09375 1.625 3.09375 1.5625 3.09375 1.46875 C 3.09375 1.390625 3.109375 1.328125 3.125 1.25 Z M 1.75 -0.109375 C 1.140625 -0.109375 1.109375 -0.875 1.109375 -1.046875 C 1.109375 -1.53125 1.390625 -2.609375 1.5625 -3.03125 C 1.875 -3.765625 2.390625 -4.1875 2.796875 -4.1875 C 3.453125 -4.1875 3.59375 -3.375 3.59375 -3.3125 C 3.59375 -3.25 3.046875 -1.0625 3.015625 -1.03125 C 2.859375 -0.75 2.296875 -0.109375 1.75 -0.109375 Z "
   id="path6182" />
</symbol>
<symbol
   overflow="visible"
   id="textext-e8fd2115-2">
<path
   style="stroke:none;"
   d=""
   id="path6185" />
</symbol>
<symbol
   overflow="visible"
   id="textext-e8fd2115-3">
<path
   style="stroke:none;"
   d="M 3.515625 -1.265625 L 3.28125 -1.265625 C 3.265625 -1.109375 3.1875 -0.703125 3.09375 -0.640625 C 3.046875 -0.59375 2.515625 -0.59375 2.40625 -0.59375 L 1.125 -0.59375 C 1.859375 -1.234375 2.109375 -1.4375 2.515625 -1.765625 C 3.03125 -2.171875 3.515625 -2.609375 3.515625 -3.265625 C 3.515625 -4.109375 2.78125 -4.625 1.890625 -4.625 C 1.03125 -4.625 0.4375 -4.015625 0.4375 -3.375 C 0.4375 -3.03125 0.734375 -2.984375 0.8125 -2.984375 C 0.96875 -2.984375 1.171875 -3.109375 1.171875 -3.359375 C 1.171875 -3.484375 1.125 -3.734375 0.765625 -3.734375 C 0.984375 -4.21875 1.453125 -4.375 1.78125 -4.375 C 2.484375 -4.375 2.84375 -3.828125 2.84375 -3.265625 C 2.84375 -2.65625 2.40625 -2.1875 2.1875 -1.9375 L 0.515625 -0.265625 C 0.4375 -0.203125 0.4375 -0.1875 0.4375 0 L 3.3125 0 Z "
   id="path6188" />
</symbol>
</g>
</defs>
<g
   id="textext-e8fd2115-4">
<g
   style="fill:rgb(0%,0%,0%);fill-opacity:1;"
   id="g6191">
  <use
   xlink:href="#textext-e8fd2115-1"
   x="223.432"
   y="134.765"
   id="use6193" />
</g>
<g
   style="fill:rgb(0%,0%,0%);fill-opacity:1;"
   id="g6195">
  <use
   xlink:href="#textext-e8fd2115-3"
   x="227.88"
   y="136.259"
   id="use6197" />
</g>
</g>
</g><g
       id="g6558"
       transform="matrix(1.1693035,0,0,-1.1693035,-142.02829,272.01283)"
       ns0:preamble=""
       ns0:text="$q_3$\n\n\n\n\n"><defs
   id="defs6560">
<g
   id="g6562">
<symbol
   id="textext-f2555a78-0"
   overflow="visible">
<path
   id="path6565"
   d=""
   style="stroke:none;" />
</symbol>
<symbol
   id="textext-f2555a78-1"
   overflow="visible">
<path
   id="path6568"
   d="M 4.5 -4.296875 C 4.5 -4.34375 4.46875 -4.390625 4.40625 -4.390625 C 4.296875 -4.390625 3.890625 -4 3.734375 -3.703125 C 3.515625 -4.25 3.125 -4.40625 2.796875 -4.40625 C 1.625 -4.40625 0.40625 -2.9375 0.40625 -1.484375 C 0.40625 -0.515625 0.984375 0.109375 1.71875 0.109375 C 2.140625 0.109375 2.53125 -0.125 2.890625 -0.484375 C 2.796875 -0.140625 2.46875 1.203125 2.4375 1.296875 C 2.359375 1.578125 2.28125 1.609375 1.71875 1.625 C 1.59375 1.625 1.5 1.625 1.5 1.828125 C 1.5 1.828125 1.5 1.9375 1.625 1.9375 C 1.9375 1.9375 2.296875 1.90625 2.625 1.90625 C 2.953125 1.90625 3.3125 1.9375 3.65625 1.9375 C 3.703125 1.9375 3.828125 1.9375 3.828125 1.734375 C 3.828125 1.625 3.734375 1.625 3.5625 1.625 C 3.09375 1.625 3.09375 1.5625 3.09375 1.46875 C 3.09375 1.390625 3.109375 1.328125 3.125 1.25 Z M 1.75 -0.109375 C 1.140625 -0.109375 1.109375 -0.875 1.109375 -1.046875 C 1.109375 -1.53125 1.390625 -2.609375 1.5625 -3.03125 C 1.875 -3.765625 2.390625 -4.1875 2.796875 -4.1875 C 3.453125 -4.1875 3.59375 -3.375 3.59375 -3.3125 C 3.59375 -3.25 3.046875 -1.0625 3.015625 -1.03125 C 2.859375 -0.75 2.296875 -0.109375 1.75 -0.109375 Z "
   style="stroke:none;" />
</symbol>
<symbol
   id="textext-f2555a78-2"
   overflow="visible">
<path
   id="path6571"
   d=""
   style="stroke:none;" />
</symbol>
<symbol
   id="textext-f2555a78-3"
   overflow="visible">
<path
   id="path6574"
   d="M 1.90625 -2.328125 C 2.453125 -2.328125 2.84375 -1.953125 2.84375 -1.203125 C 2.84375 -0.34375 2.328125 -0.078125 1.9375 -0.078125 C 1.65625 -0.078125 1.03125 -0.15625 0.75 -0.578125 C 1.078125 -0.578125 1.15625 -0.8125 1.15625 -0.96875 C 1.15625 -1.1875 0.984375 -1.34375 0.765625 -1.34375 C 0.578125 -1.34375 0.375 -1.21875 0.375 -0.9375 C 0.375 -0.28125 1.09375 0.140625 1.9375 0.140625 C 2.90625 0.140625 3.578125 -0.515625 3.578125 -1.203125 C 3.578125 -1.75 3.140625 -2.296875 2.375 -2.453125 C 3.09375 -2.71875 3.359375 -3.234375 3.359375 -3.671875 C 3.359375 -4.21875 2.734375 -4.625 1.953125 -4.625 C 1.1875 -4.625 0.59375 -4.25 0.59375 -3.6875 C 0.59375 -3.453125 0.75 -3.328125 0.953125 -3.328125 C 1.171875 -3.328125 1.3125 -3.484375 1.3125 -3.671875 C 1.3125 -3.875 1.171875 -4.03125 0.953125 -4.046875 C 1.203125 -4.34375 1.671875 -4.421875 1.9375 -4.421875 C 2.25 -4.421875 2.6875 -4.265625 2.6875 -3.671875 C 2.6875 -3.375 2.59375 -3.046875 2.40625 -2.84375 C 2.1875 -2.578125 1.984375 -2.5625 1.640625 -2.53125 C 1.46875 -2.515625 1.453125 -2.515625 1.421875 -2.515625 C 1.40625 -2.515625 1.34375 -2.5 1.34375 -2.421875 C 1.34375 -2.328125 1.40625 -2.328125 1.53125 -2.328125 Z "
   style="stroke:none;" />
</symbol>
</g>
</defs>
<g
   id="textext-f2555a78-4">
<g
   id="g6577"
   style="fill:rgb(0%,0%,0%);fill-opacity:1;">
  <use
   id="use6579"
   y="134.765"
   x="223.432"
   xlink:href="#textext-f2555a78-1" />
</g>
<g
   id="g6581"
   style="fill:rgb(0%,0%,0%);fill-opacity:1;">
  <use
   id="use6583"
   y="136.259"
   x="227.88"
   xlink:href="#textext-f2555a78-3" />
</g>
</g>
</g><path
       style="fill:none;stroke:#000000;stroke-width:0.80000001;stroke-linecap:butt;stroke-linejoin:miter;stroke-miterlimit:4;stroke-opacity:1;stroke-dasharray:none;marker-end:url(#Arrow1Mend)"
       d="m 133.18833,56.731294 18.29639,10.6066"
       id="path3099-5"
       inkscape:connector-curvature="0" /><path
       style="fill:none;stroke:#000000;stroke-width:0.80000000999999998px;stroke-linecap:butt;stroke-linejoin:miter;stroke-opacity:1;marker-end:url(#marker6762)"
       d="M 132.5125,57.000004 147.7,37.3125"
       id="path6794"
       inkscape:connector-curvature="0" /><path
       style="fill:none;stroke:#000000;stroke-width:0.80000000999999998px;stroke-linecap:butt;stroke-linejoin:miter;stroke-opacity:1;marker-start:url(#Arrow1Mstart-1)"
       d="m 132.7,35.625004 0,21"
       id="path6988"
       inkscape:connector-curvature="0" /><g
       ns0:text="$z_4$\n\n\n\n"
       ns0:preamble=""
       transform="matrix(1.1693035,0,0,-1.1693035,-112.61985,196.76291)"
       id="g8453"><defs
   id="defs8455">
<g
   id="g8457">
<symbol
   style="overflow:visible"
   overflow="visible"
   id="textext-8387e208-0">
<path
   inkscape:connector-curvature="0"
   style="stroke:none"
   d=""
   id="path8460" />
</symbol>
<symbol
   style="overflow:visible"
   overflow="visible"
   id="textext-8387e208-1">
<path
   inkscape:connector-curvature="0"
   style="stroke:none"
   d="m 1.328125,-0.828125 c 0.53125,-0.578125 0.828125,-0.828125 1.1875,-1.140625 0,0 0.609375,-0.53125 0.96875,-0.890625 C 4.4375,-3.78125 4.65625,-4.265625 4.65625,-4.3125 c 0,-0.09375 -0.09375,-0.09375 -0.109375,-0.09375 -0.078125,0 -0.09375,0.015625 -0.15625,0.109375 -0.296875,0.484375 -0.5,0.640625 -0.734375,0.640625 -0.25,0 -0.359375,-0.15625 -0.515625,-0.328125 -0.1875,-0.21875 -0.359375,-0.421875 -0.6875,-0.421875 -0.75,0 -1.203125,0.921875 -1.203125,1.140625 0,0.046875 0.03125,0.109375 0.109375,0.109375 0.09375,0 0.109375,-0.046875 0.140625,-0.109375 0.1875,-0.46875 0.765625,-0.46875 0.84375,-0.46875 0.203125,0 0.390625,0.0625 0.625,0.140625 0.40625,0.15625 0.515625,0.15625 0.765625,0.15625 -0.359375,0.421875 -1.1875,1.140625 -1.375,1.296875 l -0.90625,0.84375 C 0.78125,-0.625 0.421875,-0.0625 0.421875,0.015625 c 0,0.09375 0.109375,0.09375 0.125,0.09375 0.078125,0 0.09375,-0.015625 0.15625,-0.125 0.234375,-0.359375 0.53125,-0.625 0.859375,-0.625 0.21875,0 0.328125,0.09375 0.578125,0.375 0.15625,0.21875 0.34375,0.375 0.625,0.375 1,0 1.578125,-1.265625 1.578125,-1.53125 0,-0.046875 -0.046875,-0.109375 -0.125,-0.109375 -0.09375,0 -0.109375,0.0625 -0.140625,0.140625 C 3.84375,-0.75 3.203125,-0.5625 2.875,-0.5625 c -0.1875,0 -0.375,-0.0625 -0.578125,-0.125 -0.34375,-0.125 -0.5,-0.171875 -0.703125,-0.171875 -0.015625,0 -0.171875,0 -0.265625,0.03125 z"
   id="path8463" />
</symbol>
<symbol
   style="overflow:visible"
   overflow="visible"
   id="textext-8387e208-2">
<path
   inkscape:connector-curvature="0"
   style="stroke:none"
   d=""
   id="path8466" />
</symbol>
<symbol
   style="overflow:visible"
   overflow="visible"
   id="textext-8387e208-3">
<path
   inkscape:connector-curvature="0"
   style="stroke:none"
   d="m 3.6875,-1.140625 0,-0.25 -0.78125,0 0,-3.109375 c 0,-0.140625 0,-0.203125 -0.140625,-0.203125 -0.09375,0 -0.125,0 -0.1875,0.109375 l -2.3125,3.203125 0,0.25 2.0625,0 0,0.5625 c 0,0.25 0,0.328125 -0.578125,0.328125 l -0.1875,0 0,0.25 C 1.921875,-0.015625 2.359375,-0.03125 2.609375,-0.03125 2.875,-0.03125 3.3125,-0.015625 3.671875,0 l 0,-0.25 -0.1875,0 C 2.90625,-0.25 2.90625,-0.328125 2.90625,-0.578125 l 0,-0.5625 z M 2.375,-3.9375 l 0,2.546875 -1.84375,0 z"
   id="path8469" />
</symbol>
</g>
</defs>
<g
   id="textext-8387e208-4">
<g
   style="fill:#000000;fill-opacity:1"
   id="g8472">
  <use
   height="221.25"
   width="272.5"
   xlink:href="#textext-8387e208-1"
   x="223.43201"
   y="134.765"
   id="use8474" />
</g>
<g
   style="fill:#000000;fill-opacity:1"
   id="g8476">
  <use
   height="221.25"
   width="272.5"
   xlink:href="#textext-8387e208-3"
   x="228.065"
   y="136.259"
   id="use8478" />
</g>
</g>
</g><g
       id="g8906"
       transform="matrix(1.1693035,0,0,-1.1693035,-128.0406,187.7211)"
       ns0:preamble=""
       ns0:text="$x_4$\n\n\n"><defs
   id="defs8908">
<g
   id="g8910">
<symbol
   style="overflow:visible"
   id="textext-a16412e1-0"
   overflow="visible">
<path
   inkscape:connector-curvature="0"
   id="path8913"
   d=""
   style="stroke:none" />
</symbol>
<symbol
   style="overflow:visible"
   id="textext-a16412e1-1"
   overflow="visible">
<path
   inkscape:connector-curvature="0"
   id="path8916"
   d="M 3.328125,-3.015625 C 3.390625,-3.265625 3.625,-4.1875 4.3125,-4.1875 c 0.046875,0 0.296875,0 0.5,0.125 C 4.53125,-4 4.34375,-3.765625 4.34375,-3.515625 c 0,0.15625 0.109375,0.34375 0.375,0.34375 0.21875,0 0.53125,-0.171875 0.53125,-0.578125 0,-0.515625 -0.578125,-0.65625 -0.921875,-0.65625 -0.578125,0 -0.921875,0.53125 -1.046875,0.75 -0.25,-0.65625 -0.78125,-0.75 -1.078125,-0.75 -1.03125,0 -1.609375,1.28125 -1.609375,1.53125 0,0.109375 0.109375,0.109375 0.125,0.109375 0.078125,0 0.109375,-0.03125 0.125,-0.109375 0.34375,-1.0625 1,-1.3125 1.34375,-1.3125 0.1875,0 0.53125,0.09375 0.53125,0.671875 0,0.3125 -0.171875,0.96875 -0.53125,2.375 -0.15625,0.609375 -0.515625,1.03125 -0.953125,1.03125 -0.0625,0 -0.28125,0 -0.5,-0.125 0.25,-0.0625 0.46875,-0.265625 0.46875,-0.546875 0,-0.265625 -0.21875,-0.34375 -0.359375,-0.34375 -0.3125,0 -0.546875,0.25 -0.546875,0.578125 0,0.453125 0.484375,0.65625 0.921875,0.65625 0.671875,0 1.03125,-0.703125 1.046875,-0.75 0.125,0.359375 0.484375,0.75 1.078125,0.75 1.03125,0 1.59375,-1.28125 1.59375,-1.53125 0,-0.109375 -0.078125,-0.109375 -0.109375,-0.109375 -0.09375,0 -0.109375,0.046875 -0.140625,0.109375 -0.328125,1.078125 -1,1.3125 -1.3125,1.3125 -0.390625,0 -0.546875,-0.3125 -0.546875,-0.65625 0,-0.21875 0.046875,-0.4375 0.15625,-0.875 z"
   style="stroke:none" />
</symbol>
<symbol
   style="overflow:visible"
   id="textext-a16412e1-2"
   overflow="visible">
<path
   inkscape:connector-curvature="0"
   id="path8919"
   d=""
   style="stroke:none" />
</symbol>
<symbol
   style="overflow:visible"
   id="textext-a16412e1-3"
   overflow="visible">
<path
   inkscape:connector-curvature="0"
   id="path8922"
   d="m 3.6875,-1.140625 0,-0.25 -0.78125,0 0,-3.109375 c 0,-0.140625 0,-0.203125 -0.140625,-0.203125 -0.09375,0 -0.125,0 -0.1875,0.109375 l -2.3125,3.203125 0,0.25 2.0625,0 0,0.5625 c 0,0.25 0,0.328125 -0.578125,0.328125 l -0.1875,0 0,0.25 C 1.921875,-0.015625 2.359375,-0.03125 2.609375,-0.03125 2.875,-0.03125 3.3125,-0.015625 3.671875,0 l 0,-0.25 -0.1875,0 C 2.90625,-0.25 2.90625,-0.328125 2.90625,-0.578125 l 0,-0.5625 z M 2.375,-3.9375 l 0,2.546875 -1.84375,0 z"
   style="stroke:none" />
</symbol>
</g>
</defs>
<g
   id="textext-a16412e1-4">
<g
   id="g8925"
   style="fill:#000000;fill-opacity:1">
  <use
   height="221.25"
   width="272.5"
   id="use8927"
   y="134.765"
   x="223.43201"
   xlink:href="#textext-a16412e1-1" />
</g>
<g
   id="g8929"
   style="fill:#000000;fill-opacity:1">
  <use
   height="221.25"
   width="272.5"
   id="use8931"
   y="136.259"
   x="229.12601"
   xlink:href="#textext-a16412e1-3" />
</g>
</g>
</g><g
       ns0:text="$y_4$\n\n\n"
       ns0:preamble=""
       transform="matrix(1.1693035,0,0,-1.1693035,-109.24484,218.51291)"
       id="g9359"><defs
   id="defs9361">
<g
   id="g9363">
<symbol
   style="overflow:visible"
   overflow="visible"
   id="textext-493f296f-0">
<path
   inkscape:connector-curvature="0"
   style="stroke:none"
   d=""
   id="path9366" />
</symbol>
<symbol
   style="overflow:visible"
   overflow="visible"
   id="textext-493f296f-1">
<path
   inkscape:connector-curvature="0"
   style="stroke:none"
   d="m 4.84375,-3.796875 c 0.046875,-0.140625 0.046875,-0.15625 0.046875,-0.234375 0,-0.171875 -0.140625,-0.265625 -0.296875,-0.265625 -0.09375,0 -0.25,0.0625 -0.34375,0.203125 -0.015625,0.0625 -0.109375,0.359375 -0.140625,0.546875 -0.078125,0.25 -0.140625,0.53125 -0.203125,0.796875 l -0.453125,1.796875 c -0.03125,0.140625 -0.46875,0.84375 -1.125,0.84375 -0.5,0 -0.609375,-0.4375 -0.609375,-0.8125 C 1.71875,-1.375 1.890625,-2 2.21875,-2.875 2.375,-3.28125 2.421875,-3.390625 2.421875,-3.59375 c 0,-0.4375 -0.3125,-0.8125 -0.8125,-0.8125 -0.953125,0 -1.3125,1.453125 -1.3125,1.53125 0,0.109375 0.09375,0.109375 0.109375,0.109375 0.109375,0 0.109375,-0.03125 0.15625,-0.1875 0.28125,-0.9375 0.671875,-1.234375 1.015625,-1.234375 0.078125,0 0.25,0 0.25,0.3125 0,0.25 -0.109375,0.515625 -0.171875,0.703125 -0.40625,1.0625 -0.578125,1.625 -0.578125,2.09375 0,0.890625 0.625,1.1875 1.21875,1.1875 0.390625,0 0.71875,-0.171875 1,-0.453125 -0.125,0.515625 -0.25,1.015625 -0.640625,1.546875 -0.265625,0.328125 -0.640625,0.625 -1.09375,0.625 -0.140625,0 -0.59375,-0.03125 -0.765625,-0.421875 0.15625,0 0.296875,0 0.421875,-0.125 C 1.328125,1.203125 1.421875,1.0625 1.421875,0.875 1.421875,0.5625 1.15625,0.53125 1.0625,0.53125 0.828125,0.53125 0.5,0.6875 0.5,1.171875 c 0,0.5 0.4375,0.875 1.0625,0.875 1.015625,0 2.046875,-0.90625 2.328125,-2.03125 z"
   id="path9369" />
</symbol>
<symbol
   style="overflow:visible"
   overflow="visible"
   id="textext-493f296f-2">
<path
   inkscape:connector-curvature="0"
   style="stroke:none"
   d=""
   id="path9372" />
</symbol>
<symbol
   style="overflow:visible"
   overflow="visible"
   id="textext-493f296f-3">
<path
   inkscape:connector-curvature="0"
   style="stroke:none"
   d="m 3.6875,-1.140625 0,-0.25 -0.78125,0 0,-3.109375 c 0,-0.140625 0,-0.203125 -0.140625,-0.203125 -0.09375,0 -0.125,0 -0.1875,0.109375 l -2.3125,3.203125 0,0.25 2.0625,0 0,0.5625 c 0,0.25 0,0.328125 -0.578125,0.328125 l -0.1875,0 0,0.25 C 1.921875,-0.015625 2.359375,-0.03125 2.609375,-0.03125 2.875,-0.03125 3.3125,-0.015625 3.671875,0 l 0,-0.25 -0.1875,0 C 2.90625,-0.25 2.90625,-0.328125 2.90625,-0.578125 l 0,-0.5625 z M 2.375,-3.9375 l 0,2.546875 -1.84375,0 z"
   id="path9375" />
</symbol>
</g>
</defs>
<g
   id="textext-493f296f-4">
<g
   style="fill:#000000;fill-opacity:1"
   id="g9378">
  <use
   height="221.25"
   width="272.5"
   xlink:href="#textext-493f296f-1"
   x="223.43201"
   y="134.765"
   id="use9380" />
</g>
<g
   style="fill:#000000;fill-opacity:1"
   id="g9382">
  <use
   height="221.25"
   width="272.5"
   xlink:href="#textext-493f296f-3"
   x="228.317"
   y="136.259"
   id="use9384" />
</g>
</g>
</g><g
       id="g3421"
       ns0:preamble=""
       ns0:text="Organe terminal\n"
       transform="matrix(1.1288307,0,0,-1.1288307,-116.02039,170.85774)"><defs
   id="defs3423">
<g
   id="g3425">
<symbol
   id="textext-d681ffee-0"
   overflow="visible"
   style="overflow:visible">
<path
   id="path3428"
   d=""
   style="stroke:none"
   inkscape:connector-curvature="0" />
</symbol>
<symbol
   id="textext-d681ffee-1"
   overflow="visible"
   style="overflow:visible">
<path
   id="path3431"
   d="m 7.1875,-3.375 c 0,-2.03125 -1.5,-3.65625 -3.3125,-3.65625 -1.796875,0 -3.3125,1.59375 -3.3125,3.65625 0,2.046875 1.53125,3.59375 3.3125,3.59375 1.8125,0 3.3125,-1.578125 3.3125,-3.59375 z M 3.875,-0.046875 c -0.953125,0 -2.296875,-0.875 -2.296875,-3.46875 0,-2.578125 1.46875,-3.265625 2.296875,-3.265625 0.859375,0 2.28125,0.703125 2.28125,3.265625 0,2.640625 -1.359375,3.46875 -2.28125,3.46875 z"
   style="stroke:none"
   inkscape:connector-curvature="0" />
</symbol>
<symbol
   id="textext-d681ffee-2"
   overflow="visible"
   style="overflow:visible">
<path
   id="path3434"
   d="m 1.671875,-3.3125 0,-1.09375 -1.390625,0.109375 0,0.3125 c 0.703125,0 0.78125,0.0625 0.78125,0.5625 l 0,2.671875 c 0,0.4375 -0.109375,0.4375 -0.78125,0.4375 l 0,0.3125 c 0.390625,-0.015625 0.859375,-0.03125 1.140625,-0.03125 0.390625,0 0.859375,0 1.265625,0.03125 l 0,-0.3125 -0.21875,0 c -0.734375,0 -0.75,-0.109375 -0.75,-0.46875 l 0,-1.53125 c 0,-0.984375 0.421875,-1.875 1.171875,-1.875 0.0625,0 0.09375,0 0.109375,0.015625 -0.03125,0 -0.234375,0.125 -0.234375,0.390625 0,0.265625 0.21875,0.421875 0.4375,0.421875 0.171875,0 0.421875,-0.125 0.421875,-0.4375 0,-0.3125 -0.3125,-0.609375 -0.734375,-0.609375 -0.734375,0 -1.09375,0.671875 -1.21875,1.09375 z"
   style="stroke:none"
   inkscape:connector-curvature="0" />
</symbol>
<symbol
   id="textext-d681ffee-3"
   overflow="visible"
   style="overflow:visible">
<path
   id="path3437"
   d="m 2.21875,-1.71875 c -0.875,0 -0.875,-1 -0.875,-1.21875 0,-0.265625 0.015625,-0.59375 0.15625,-0.84375 0.078125,-0.109375 0.3125,-0.390625 0.71875,-0.390625 0.859375,0 0.859375,0.984375 0.859375,1.21875 0,0.265625 0,0.59375 -0.15625,0.84375 C 2.84375,-2 2.609375,-1.71875 2.21875,-1.71875 z M 1.0625,-1.328125 c 0,-0.03125 0,-0.265625 0.15625,-0.46875 0.390625,0.28125 0.8125,0.3125 1,0.3125 0.921875,0 1.609375,-0.6875 1.609375,-1.453125 0,-0.375 -0.15625,-0.734375 -0.40625,-0.96875 C 3.78125,-4.25 4.140625,-4.296875 4.3125,-4.296875 c 0.03125,0 0.078125,0 0.109375,0.015625 C 4.3125,-4.25 4.25,-4.140625 4.25,-4.015625 c 0,0.171875 0.140625,0.28125 0.296875,0.28125 0.09375,0 0.28125,-0.0625 0.28125,-0.296875 0,-0.171875 -0.109375,-0.484375 -0.5,-0.484375 -0.203125,0 -0.640625,0.0625 -1.0625,0.46875 C 2.84375,-4.375 2.4375,-4.40625 2.21875,-4.40625 c -0.9375,0 -1.625,0.6875 -1.625,1.453125 0,0.4375 0.21875,0.8125 0.46875,1.03125 -0.125,0.140625 -0.3125,0.46875 -0.3125,0.828125 0,0.3125 0.140625,0.6875 0.453125,0.890625 -0.609375,0.15625 -0.921875,0.59375 -0.921875,0.984375 0,0.71875 0.984375,1.265625 2.203125,1.265625 1.171875,0 2.203125,-0.5 2.203125,-1.28125 0,-0.34375 -0.125,-0.859375 -0.640625,-1.140625 -0.53125,-0.265625 -1.109375,-0.265625 -1.71875,-0.265625 -0.25,0 -0.671875,0 -0.75,-0.015625 C 1.265625,-0.703125 1.0625,-1 1.0625,-1.328125 z M 2.5,1.828125 c -1.015625,0 -1.703125,-0.515625 -1.703125,-1.046875 0,-0.453125 0.375,-0.828125 0.8125,-0.84375 l 0.59375,0 c 0.859375,0 1.96875,0 1.96875,0.84375 0,0.546875 -0.703125,1.046875 -1.671875,1.046875 z"
   style="stroke:none"
   inkscape:connector-curvature="0" />
</symbol>
<symbol
   id="textext-d681ffee-4"
   overflow="visible"
   style="overflow:visible">
<path
   id="path3440"
   d="m 3.3125,-0.75 c 0.046875,0.390625 0.3125,0.8125 0.78125,0.8125 0.21875,0 0.828125,-0.140625 0.828125,-0.953125 l 0,-0.5625 -0.25,0 0,0.5625 c 0,0.578125 -0.25,0.640625 -0.359375,0.640625 -0.328125,0 -0.375,-0.453125 -0.375,-0.5 l 0,-1.984375 c 0,-0.421875 0,-0.8125 -0.359375,-1.1875 C 3.1875,-4.3125 2.6875,-4.46875 2.21875,-4.46875 c -0.828125,0 -1.515625,0.46875 -1.515625,1.125 0,0.296875 0.203125,0.46875 0.46875,0.46875 0.28125,0 0.453125,-0.203125 0.453125,-0.453125 0,-0.125 -0.046875,-0.453125 -0.515625,-0.453125 C 1.390625,-4.140625 1.875,-4.25 2.1875,-4.25 c 0.5,0 1.0625,0.390625 1.0625,1.28125 l 0,0.359375 c -0.515625,0.03125 -1.203125,0.0625 -1.828125,0.359375 -0.75,0.34375 -1,0.859375 -1,1.296875 0,0.8125 0.96875,1.0625 1.59375,1.0625 0.65625,0 1.109375,-0.40625 1.296875,-0.859375 z M 3.25,-2.390625 l 0,1 c 0,0.9375 -0.71875,1.28125 -1.171875,1.28125 -0.484375,0 -0.890625,-0.34375 -0.890625,-0.84375 0,-0.546875 0.421875,-1.375 2.0625,-1.4375 z"
   style="stroke:none"
   inkscape:connector-curvature="0" />
</symbol>
<symbol
   id="textext-d681ffee-5"
   overflow="visible"
   style="overflow:visible">
<path
   id="path3443"
   d="m 1.09375,-3.421875 0,2.671875 c 0,0.4375 -0.109375,0.4375 -0.78125,0.4375 l 0,0.3125 c 0.359375,-0.015625 0.859375,-0.03125 1.140625,-0.03125 0.25,0 0.765625,0.015625 1.109375,0.03125 l 0,-0.3125 c -0.671875,0 -0.78125,0 -0.78125,-0.4375 l 0,-1.84375 C 1.78125,-3.625 2.5,-4.1875 3.125,-4.1875 c 0.640625,0 0.75,0.53125 0.75,1.109375 l 0,2.328125 c 0,0.4375 -0.109375,0.4375 -0.78125,0.4375 l 0,0.3125 c 0.34375,-0.015625 0.859375,-0.03125 1.125,-0.03125 0.25,0 0.78125,0.015625 1.109375,0.03125 l 0,-0.3125 c -0.515625,0 -0.765625,0 -0.765625,-0.296875 l 0,-1.90625 c 0,-0.859375 0,-1.15625 -0.3125,-1.515625 -0.140625,-0.171875 -0.46875,-0.375 -1.046875,-0.375 C 2.46875,-4.40625 2,-3.984375 1.71875,-3.359375 l 0,-1.046875 -1.40625,0.109375 0,0.3125 c 0.703125,0 0.78125,0.0625 0.78125,0.5625 z"
   style="stroke:none"
   inkscape:connector-curvature="0" />
</symbol>
<symbol
   id="textext-d681ffee-6"
   overflow="visible"
   style="overflow:visible">
<path
   id="path3446"
   d="M 1.109375,-2.515625 C 1.171875,-4 2.015625,-4.25 2.359375,-4.25 c 1.015625,0 1.125,1.34375 1.125,1.734375 z m 0,0.21875 2.78125,0 c 0.21875,0 0.25,0 0.25,-0.21875 0,-0.984375 -0.546875,-1.953125 -1.78125,-1.953125 -1.15625,0 -2.078125,1.03125 -2.078125,2.28125 0,1.328125 1.046875,2.296875 2.1875,2.296875 C 3.6875,0.109375 4.140625,-1 4.140625,-1.1875 4.140625,-1.28125 4.0625,-1.3125 4,-1.3125 c -0.078125,0 -0.109375,0.0625 -0.125,0.140625 -0.34375,1.03125 -1.25,1.03125 -1.34375,1.03125 -0.5,0 -0.890625,-0.296875 -1.125,-0.671875 -0.296875,-0.46875 -0.296875,-1.125 -0.296875,-1.484375 z"
   style="stroke:none"
   inkscape:connector-curvature="0" />
</symbol>
<symbol
   id="textext-d681ffee-7"
   overflow="visible"
   style="overflow:visible">
<path
   id="path3449"
   d="m 1.71875,-3.984375 1.4375,0 0,-0.3125 -1.4375,0 0,-1.828125 -0.25,0 c 0,0.8125 -0.296875,1.875 -1.28125,1.921875 l 0,0.21875 0.84375,0 0,2.75 c 0,1.21875 0.9375,1.34375 1.296875,1.34375 0.703125,0 0.984375,-0.703125 0.984375,-1.34375 l 0,-0.5625 -0.25,0 0,0.546875 c 0,0.734375 -0.296875,1.109375 -0.671875,1.109375 -0.671875,0 -0.671875,-0.90625 -0.671875,-1.078125 z"
   style="stroke:none"
   inkscape:connector-curvature="0" />
</symbol>
<symbol
   id="textext-d681ffee-8"
   overflow="visible"
   style="overflow:visible">
<path
   id="path3452"
   d="m 1.09375,-3.421875 0,2.671875 c 0,0.4375 -0.109375,0.4375 -0.78125,0.4375 l 0,0.3125 c 0.359375,-0.015625 0.859375,-0.03125 1.140625,-0.03125 0.25,0 0.765625,0.015625 1.109375,0.03125 l 0,-0.3125 c -0.671875,0 -0.78125,0 -0.78125,-0.4375 l 0,-1.84375 C 1.78125,-3.625 2.5,-4.1875 3.125,-4.1875 c 0.640625,0 0.75,0.53125 0.75,1.109375 l 0,2.328125 c 0,0.4375 -0.109375,0.4375 -0.78125,0.4375 l 0,0.3125 c 0.34375,-0.015625 0.859375,-0.03125 1.125,-0.03125 0.25,0 0.78125,0.015625 1.109375,0.03125 l 0,-0.3125 c -0.65625,0 -0.765625,0 -0.765625,-0.4375 l 0,-1.84375 c 0,-1.03125 0.703125,-1.59375 1.34375,-1.59375 0.625,0 0.734375,0.53125 0.734375,1.109375 l 0,2.328125 c 0,0.4375 -0.109375,0.4375 -0.78125,0.4375 l 0,0.3125 c 0.34375,-0.015625 0.859375,-0.03125 1.125,-0.03125 0.265625,0 0.78125,0.015625 1.125,0.03125 l 0,-0.3125 c -0.515625,0 -0.765625,0 -0.78125,-0.296875 l 0,-1.90625 c 0,-0.859375 0,-1.15625 -0.3125,-1.515625 -0.140625,-0.171875 -0.46875,-0.375 -1.046875,-0.375 -0.828125,0 -1.28125,0.59375 -1.4375,0.984375 C 4.390625,-4.296875 3.65625,-4.40625 3.203125,-4.40625 2.46875,-4.40625 2,-3.984375 1.71875,-3.359375 l 0,-1.046875 -1.40625,0.109375 0,0.3125 c 0.703125,0 0.78125,0.0625 0.78125,0.5625 z"
   style="stroke:none"
   inkscape:connector-curvature="0" />
</symbol>
<symbol
   id="textext-d681ffee-9"
   overflow="visible"
   style="overflow:visible">
<path
   id="path3455"
   d="M 1.765625,-4.40625 0.375,-4.296875 l 0,0.3125 c 0.640625,0 0.734375,0.0625 0.734375,0.546875 l 0,2.6875 c 0,0.4375 -0.109375,0.4375 -0.78125,0.4375 l 0,0.3125 C 0.640625,-0.015625 1.1875,-0.03125 1.421875,-0.03125 1.78125,-0.03125 2.125,-0.015625 2.46875,0 l 0,-0.3125 c -0.671875,0 -0.703125,-0.046875 -0.703125,-0.4375 z m 0.03125,-1.734375 c 0,-0.3125 -0.234375,-0.53125 -0.515625,-0.53125 -0.3125,0 -0.53125,0.265625 -0.53125,0.53125 0,0.265625 0.21875,0.53125 0.53125,0.53125 0.28125,0 0.515625,-0.21875 0.515625,-0.53125 z"
   style="stroke:none"
   inkscape:connector-curvature="0" />
</symbol>
<symbol
   id="textext-d681ffee-10"
   overflow="visible"
   style="overflow:visible">
<path
   id="path3458"
   d="m 1.765625,-6.921875 -1.4375,0.109375 0,0.3125 c 0.703125,0 0.78125,0.0625 0.78125,0.5625 l 0,5.1875 c 0,0.4375 -0.109375,0.4375 -0.78125,0.4375 l 0,0.3125 C 0.65625,-0.015625 1.1875,-0.03125 1.4375,-0.03125 c 0.25,0 0.734375,0.015625 1.109375,0.03125 l 0,-0.3125 c -0.671875,0 -0.78125,0 -0.78125,-0.4375 z"
   style="stroke:none"
   inkscape:connector-curvature="0" />
</symbol>
</g>
</defs>
<g
   id="textext-d681ffee-11">
<g
   id="g3461"
   style="fill:#000000;fill-opacity:1">
  <use
   id="use3463"
   y="134.765"
   x="223.43201"
   xlink:href="#textext-d681ffee-1"
   width="272.5"
   height="221.25" />
  <use
   id="use3465"
   y="134.765"
   x="231.18091"
   xlink:href="#textext-d681ffee-2"
   width="272.5"
   height="221.25" />
  <use
   id="use3467"
   y="134.765"
   x="235.08327"
   xlink:href="#textext-d681ffee-3"
   width="272.5"
   height="221.25" />
  <use
   id="use3469"
   y="134.765"
   x="240.06456"
   xlink:href="#textext-d681ffee-4"
   width="272.5"
   height="221.25" />
  <use
   id="use3471"
   y="134.765"
   x="245.04587"
   xlink:href="#textext-d681ffee-5"
   width="272.5"
   height="221.25" />
  <use
   id="use3473"
   y="134.765"
   x="250.58109"
   xlink:href="#textext-d681ffee-6"
   width="272.5"
   height="221.25" />
</g>
<g
   id="g3475"
   style="fill:#000000;fill-opacity:1">
  <use
   id="use3477"
   y="134.765"
   x="258.32602"
   xlink:href="#textext-d681ffee-7"
   width="272.5"
   height="221.25" />
  <use
   id="use3479"
   y="134.765"
   x="262.20047"
   xlink:href="#textext-d681ffee-6"
   width="272.5"
   height="221.25" />
  <use
   id="use3481"
   y="134.765"
   x="266.62784"
   xlink:href="#textext-d681ffee-2"
   width="272.5"
   height="221.25" />
  <use
   id="use3483"
   y="134.765"
   x="270.53018"
   xlink:href="#textext-d681ffee-8"
   width="272.5"
   height="221.25" />
  <use
   id="use3485"
   y="134.765"
   x="278.83203"
   xlink:href="#textext-d681ffee-9"
   width="272.5"
   height="221.25" />
  <use
   id="use3487"
   y="134.765"
   x="281.59964"
   xlink:href="#textext-d681ffee-5"
   width="272.5"
   height="221.25" />
  <use
   id="use3489"
   y="134.765"
   x="287.13486"
   xlink:href="#textext-d681ffee-4"
   width="272.5"
   height="221.25" />
  <use
   id="use3491"
   y="134.765"
   x="292.11615"
   xlink:href="#textext-d681ffee-10"
   width="272.5"
   height="221.25" />
</g>
</g>
</g></g></svg>