<?xml version="1.0" encoding="UTF-8" standalone="no"?>
<!-- Created with Inkscape (http://www.inkscape.org/) -->

<svg
   xmlns:ns0="http://www.iki.fi/pav/software/textext/"
   xmlns:dc="http://purl.org/dc/elements/1.1/"
   xmlns:cc="http://creativecommons.org/ns#"
   xmlns:rdf="http://www.w3.org/1999/02/22-rdf-syntax-ns#"
   xmlns:svg="http://www.w3.org/2000/svg"
   xmlns="http://www.w3.org/2000/svg"
   xmlns:xlink="http://www.w3.org/1999/xlink"
   xmlns:sodipodi="http://sodipodi.sourceforge.net/DTD/sodipodi-0.dtd"
   xmlns:inkscape="http://www.inkscape.org/namespaces/inkscape"
   id="svg2"
   version="1.1"
   inkscape:version="0.91 r13725"
   width="272.5"
   height="221.25"
   xml:space="preserve"
   sodipodi:docname="fig-tourelle.svg"><sodipodi:namedview
     pagecolor="#ffffff"
     bordercolor="#666666"
     borderopacity="1"
     objecttolerance="10"
     gridtolerance="10"
     guidetolerance="10"
     inkscape:pageopacity="0"
     inkscape:pageshadow="2"
     inkscape:window-width="1920"
     inkscape:window-height="1036"
     id="namedview4"
     showgrid="true"
     inkscape:zoom="3.4615524"
     inkscape:cx="51.669268"
     inkscape:cy="111.54899"
     inkscape:window-x="0"
     inkscape:window-y="0"
     inkscape:window-maximized="0"
     inkscape:current-layer="g10"
     inkscape:snap-to-guides="true"
     inkscape:snap-grids="true"><inkscape:grid
       type="xygrid"
       id="grid4884" /></sodipodi:namedview><metadata
     id="metadata8"><rdf:RDF><cc:Work
         rdf:about=""><dc:format>image/svg+xml</dc:format><dc:type
           rdf:resource="http://purl.org/dc/dcmitype/StillImage" /><dc:title></dc:title></cc:Work></rdf:RDF></metadata><defs
     id="defs6"><marker
       inkscape:stockid="Arrow1Mend"
       orient="auto"
       refY="0.0"
       refX="0.0"
       id="marker4894"
       style="overflow:visible;"
       inkscape:isstock="true"><path
         id="path4896"
         d="M 0.0,0.0 L 5.0,-5.0 L -12.5,0.0 L 5.0,5.0 L 0.0,0.0 z "
         style="fill-rule:evenodd;stroke:#000000;stroke-width:1pt;stroke-opacity:1;fill:#000000;fill-opacity:1"
         transform="scale(0.4) rotate(180) translate(10,0)" /></marker><marker
       inkscape:stockid="Arrow2Mend"
       orient="auto"
       refY="0.0"
       refX="0.0"
       id="Arrow2Mend"
       style="overflow:visible;"
       inkscape:isstock="true"><path
         id="path4502"
         style="fill-rule:evenodd;stroke-width:0.625;stroke-linejoin:round;stroke:#000000;stroke-opacity:1;fill:#000000;fill-opacity:1"
         d="M 8.7185878,4.0337352 L -2.2072895,0.016013256 L 8.7185884,-4.0017078 C 6.9730900,-1.6296469 6.9831476,1.6157441 8.7185878,4.0337352 z "
         transform="scale(0.6) rotate(180) translate(0,0)" /></marker><marker
       inkscape:isstock="true"
       style="overflow:visible;"
       id="marker11023"
       refX="0.0"
       refY="0.0"
       orient="auto"
       inkscape:stockid="Arrow1Mend"
       inkscape:collect="always"><path
         transform="scale(0.4) rotate(180) translate(10,0)"
         style="fill-rule:evenodd;stroke:#000000;stroke-width:1pt;stroke-opacity:1;fill:#000000;fill-opacity:1"
         d="M 0.0,0.0 L 5.0,-5.0 L -12.5,0.0 L 5.0,5.0 L 0.0,0.0 z "
         id="path11025" /></marker><marker
       inkscape:stockid="Arrow1Mend"
       orient="auto"
       refY="0.0"
       refX="0.0"
       id="marker10842"
       style="overflow:visible;"
       inkscape:isstock="true"
       inkscape:collect="always"><path
         id="path4484"
         d="M 0.0,0.0 L 5.0,-5.0 L -12.5,0.0 L 5.0,5.0 L 0.0,0.0 z "
         style="fill-rule:evenodd;stroke:#000000;stroke-width:1pt;stroke-opacity:1;fill:#000000;fill-opacity:1"
         transform="scale(0.4) rotate(180) translate(10,0)" /></marker><marker
       inkscape:stockid="Arrow1Mstart"
       orient="auto"
       refY="0.0"
       refX="0.0"
       id="Arrow1Mstart"
       style="overflow:visible"><path
         id="path3878"
         d="M 0.0,0.0 L 5.0,-5.0 L -12.5,0.0 L 5.0,5.0 L 0.0,0.0 z "
         style="fill-rule:evenodd;stroke:#000000;stroke-width:1.0pt;marker-start:none"
         transform="scale(0.4) translate(10,0)" /></marker><marker
       inkscape:stockid="Arrow1Lstart"
       orient="auto"
       refY="0.0"
       refX="0.0"
       id="Arrow1Lstart"
       style="overflow:visible"><path
         id="path3872"
         d="M 0.0,0.0 L 5.0,-5.0 L -12.5,0.0 L 5.0,5.0 L 0.0,0.0 z "
         style="fill-rule:evenodd;stroke:#000000;stroke-width:1.0pt;marker-start:none"
         transform="scale(0.8) translate(12.5,0)" /></marker><marker
       inkscape:stockid="Arrow1Mend"
       orient="auto"
       refY="0.0"
       refX="0.0"
       id="Arrow1Mend"
       style="overflow:visible;"><path
         id="path3881"
         d="M 0.0,0.0 L 5.0,-5.0 L -12.5,0.0 L 5.0,5.0 L 0.0,0.0 z "
         style="fill-rule:evenodd;stroke:#000000;stroke-width:1.0pt;marker-start:none;"
         transform="scale(0.4) rotate(180) translate(10,0)" /></marker><clipPath
       clipPathUnits="userSpaceOnUse"
       id="clipPath22"><path
         d="M 0,1770 0,0 l 2180,0 0,1770 -2180,0 z m 753.014,-1292.833 -21.416,30.865 -60.471,-42.203 57.321,16.377 -35.904,-47.873 60.47,42.834 z"
         clip-rule="evenodd"
         id="path24" /></clipPath><clipPath
       clipPathUnits="userSpaceOnUse"
       id="clipPath38"><path
         d="M 0,1770 0,0 l 2180,0 0,1770 -2180,0 z m 310.824,-326.57 -19.526,-32.75 64.249,-37.17 -39.053,44.73 57.95,-11.97 -63.62,37.16 z"
         clip-rule="evenodd"
         id="path40" /></clipPath><clipPath
       clipPathUnits="userSpaceOnUse"
       id="clipPath82"><path
         d="M 0,1770 0,0 l 2180,0 0,1770 -2180,0 z m 1264.49,-820.408 28.98,23.936 -60.47,73.072 34.01,-70.552 -62.99,45.982 60.47,-72.438 z"
         clip-rule="evenodd"
         id="path84" /></clipPath><marker
       inkscape:stockid="Arrow1Mstart"
       orient="auto"
       refY="0"
       refX="0"
       id="Arrow1Mstart-1"
       style="overflow:visible"><path
         inkscape:connector-curvature="0"
         id="path3878-4"
         d="M 0,0 5,-5 -12.5,0 5,5 0,0 z"
         style="fill-rule:evenodd;stroke:#000000;stroke-width:1pt;marker-start:none"
         transform="matrix(0.4,0,0,0.4,4,0)" /></marker><marker
       inkscape:stockid="Arrow1Mend"
       orient="auto"
       refY="0"
       refX="0"
       id="Arrow1Mend-7"
       style="overflow:visible"><path
         inkscape:connector-curvature="0"
         id="path3881-7"
         d="M 0,0 5,-5 -12.5,0 5,5 0,0 z"
         style="fill-rule:evenodd;stroke:#000000;stroke-width:1pt;marker-start:none"
         transform="matrix(-0.4,0,0,-0.4,-4,0)" /></marker><marker
       inkscape:stockid="Arrow1Mend"
       orient="auto"
       refY="0"
       refX="0"
       id="marker6762"
       style="overflow:visible"><path
         inkscape:connector-curvature="0"
         id="path6764"
         d="M 0,0 5,-5 -12.5,0 5,5 0,0 z"
         style="fill-rule:evenodd;stroke:#000000;stroke-width:1pt;marker-start:none"
         transform="matrix(-0.4,0,0,-0.4,-4,0)" /></marker></defs><g
     id="g10"
     inkscape:groupmode="layer"
     inkscape:label="fig-tourelle"
     transform="matrix(1.25,0,0,-1.25,0,221.25)"
     style="display:inline"><path
       inkscape:connector-curvature="0"
       d="M 109.694,173.382 12.932182,119.35019"
       style="fill:none;stroke:#000000;stroke-width:0.47242498;stroke-linecap:butt;stroke-linejoin:miter;stroke-miterlimit:10;stroke-dasharray:0.94485, 2.83455;stroke-dashoffset:28.34550095;stroke-opacity:1"
       id="path16"
       sodipodi:nodetypes="cc" /><path
       id="path26"
       style="fill:none;stroke:#000000;stroke-width:0.80000001;stroke-linecap:butt;stroke-linejoin:miter;stroke-miterlimit:4;stroke-dasharray:none;stroke-opacity:1;marker-end:url(#marker11023)"
       d="m 46.49161,57.866321 c 3.536928,-4.342408 8.233945,-6.764498 13.118062,-6.764498 4.884117,0 9.581135,2.422209 13.118155,6.764618"
       inkscape:connector-curvature="0" /><path
       id="path42"
       style="fill:none;stroke:#000000;stroke-width:0.80000001;stroke-linecap:butt;stroke-linejoin:miter;stroke-miterlimit:4;stroke-dasharray:none;stroke-opacity:1;marker-end:url(#Arrow2Mend)"
       d="m 76.931248,144.94196 c 2.453773,2.13098 3.819058,4.93979 3.819058,7.85854 0,5.20556 -4.302542,9.76294 -10.489968,11.10998"
       inkscape:connector-curvature="0" /><path
       inkscape:connector-curvature="0"
       d="M 74.9235,146.233 50.2314,131.934"
       style="fill:none;stroke:#000000;stroke-width:0.94484997;stroke-linecap:butt;stroke-linejoin:miter;stroke-miterlimit:10;stroke-dasharray:none;stroke-opacity:1"
       id="path52" /><path
       inkscape:connector-curvature="0"
       d="M 95.795357,114.20312 83.139046,106.71447 104.02165,81.753344 116.04505,89.2418 95.795357,114.20312 Z"
       style="fill:none;stroke:#000000;stroke-width:0.94484997;stroke-linecap:butt;stroke-linejoin:miter;stroke-miterlimit:10;stroke-dasharray:none;stroke-opacity:1"
       id="path56" /><path
       inkscape:connector-curvature="0"
       d="m 82.992563,106.67102 1.304745,-9.274067 19.570772,-25.173601 0,9.274484"
       style="fill:none;stroke:#000000;stroke-width:0.94484997;stroke-linecap:butt;stroke-linejoin:miter;stroke-miterlimit:10;stroke-dasharray:none;stroke-opacity:1"
       id="path58" /><path
       inkscape:connector-curvature="0"
       d="M 111.77278,81.773222 131.71561,57.025048"
       style="fill:none;stroke:#000000;stroke-width:0.94485003;stroke-linecap:butt;stroke-linejoin:miter;stroke-miterlimit:10;stroke-dasharray:none;stroke-opacity:1"
       id="path60"
       sodipodi:nodetypes="cc" /><path
       inkscape:connector-curvature="0"
       d="M 38.196387,172.35321 C 76.402405,125.04645 114.60842,77.739671 152.81444,30.432907 l 0,0.627967"
       style="fill:none;stroke:#000000;stroke-width:0.47242498;stroke-linecap:butt;stroke-linejoin:miter;stroke-miterlimit:10;stroke-dasharray:0.94485002, 2.83455006;stroke-dashoffset:28.34550095;stroke-opacity:1"
       id="path64"
       sodipodi:nodetypes="ccc" /><path
       inkscape:connector-curvature="0"
       d="m 103.722,71.3379 12.598,8.4407 -0.063,9.5745"
       style="fill:none;stroke:#000000;stroke-width:0.94484997;stroke-linecap:butt;stroke-linejoin:miter;stroke-miterlimit:10;stroke-dasharray:none;stroke-opacity:1"
       id="path68" /><path
       inkscape:connector-curvature="0"
       d="m 45.72873,137.53794 -12.598,-7.25396 0,-18.88704 27.0227,16.063 0,-40.3137"
       style="fill:none;stroke:#000000;stroke-width:0.94484997;stroke-linecap:butt;stroke-linejoin:miter;stroke-miterlimit:10;stroke-dasharray:none;stroke-opacity:1"
       id="path72"
       sodipodi:nodetypes="ccccc" /><path
       inkscape:connector-curvature="0"
       d="m 59.9319,54.0787 0,-24.408353"
       style="fill:none;stroke:#000000;stroke-width:0.94484997;stroke-linecap:butt;stroke-linejoin:miter;stroke-miterlimit:10;stroke-dasharray:none;stroke-opacity:1"
       id="path76" /><path
       id="path86"
       style="fill:none;stroke:#000000;stroke-width:0.80000001;stroke-linecap:butt;stroke-linejoin:miter;stroke-miterlimit:10;stroke-dasharray:none;stroke-opacity:1;marker-end:url(#marker10842)"
       d="m 82.500854,90.736974 14.173,-17.0071"
       inkscape:connector-curvature="0" /><path
       inkscape:connector-curvature="0"
       d="m 74.9235,146.225 c 0.5361,1.257 0.8126,2.61 0.8126,3.976 0,5.134 -3.8379,9.456 -8.9351,10.064"
       style="fill:none;stroke:#000000;stroke-width:0.94484997;stroke-linecap:butt;stroke-linejoin:miter;stroke-miterlimit:10;stroke-dasharray:none;stroke-opacity:1"
       id="path94" /><path
       inkscape:connector-curvature="0"
       d="m 51.472953,58.681982 c 1.967964,-2.934139 4.479071,-4.665963 7.795362,-4.665963 3.316394,0 6.435484,1.731824 8.403449,4.665963"
       style="fill:none;stroke:#000000;stroke-width:0.94484997;stroke-linecap:butt;stroke-linejoin:miter;stroke-miterlimit:10;stroke-dasharray:none;stroke-opacity:1"
       id="path96"
       sodipodi:nodetypes="csc" /><path
       inkscape:connector-curvature="0"
       d="m 51.24064,71.664965 c 1.9021,-2.5799 4.9168,-4.1028 8.1222,-4.1028 3.2053,0 6.2201,1.5229 8.1222,4.1029"
       style="fill:none;stroke:#000000;stroke-width:0.94484997;stroke-linecap:butt;stroke-linejoin:miter;stroke-miterlimit:10;stroke-dasharray:none;stroke-opacity:1"
       id="path98" /><path
       inkscape:connector-curvature="0"
       d="m 63.908474,140.38127 c 0.3065,0.978 0.4624,1.997 0.4624,3.022 0,5.58 -4.5236,10.103 -10.1036,10.103 -0.0235,0 -0.0471,0 -0.0705,0"
       style="fill:none;stroke:#000000;stroke-width:0.94484997;stroke-linecap:butt;stroke-linejoin:miter;stroke-miterlimit:10;stroke-dasharray:none;stroke-opacity:1"
       id="path100" /><path
       inkscape:connector-curvature="0"
       d="m 42.0742,146.026 c 1.9282,1.113 5.3103,-1.135 7.5541,-5.021 2.2438,-3.887 2.4998,-7.94 0.5716,-9.053 -1.9281,-1.113 -5.3103,1.135 -7.5541,5.021 -2.2438,3.887 -2.4997,7.94 -0.5716,9.053 z"
       style="fill:none;stroke:#000000;stroke-width:0.94484997;stroke-linecap:butt;stroke-linejoin:miter;stroke-miterlimit:10;stroke-dasharray:none;stroke-opacity:1"
       id="path102" /><path
       inkscape:connector-curvature="0"
       d="m 67.6167,86.1406 c 0,-2.2265 -3.6381,-4.0314 -8.1258,-4.0314 -4.4877,0 -8.1257,1.8049 -8.1257,4.0314 0,2.2264 3.638,4.0313 8.1257,4.0313 4.4877,0 8.1258,-1.8049 8.1258,-4.0313 z"
       style="fill:none;stroke:#000000;stroke-width:0.94484997;stroke-linecap:butt;stroke-linejoin:miter;stroke-miterlimit:10;stroke-dasharray:none;stroke-opacity:1"
       id="path104" /><path
       inkscape:connector-curvature="0"
       d="M 66.7978,160.28 42.0427,146.044"
       style="fill:none;stroke:#000000;stroke-width:0.94484997;stroke-linecap:butt;stroke-linejoin:miter;stroke-miterlimit:10;stroke-dasharray:none;stroke-opacity:1"
       id="path106" /><path
       inkscape:connector-curvature="0"
       d="M 58.987,29.6385 56.9713,21.4499"
       style="fill:none;stroke:#000000;stroke-width:0.94484997;stroke-linecap:butt;stroke-linejoin:miter;stroke-miterlimit:10;stroke-dasharray:none;stroke-opacity:1"
       id="path108" /><path
       inkscape:connector-curvature="0"
       d="M 63.0814,29.6385 61.0657,21.4499"
       style="fill:none;stroke:#000000;stroke-width:0.94484997;stroke-linecap:butt;stroke-linejoin:miter;stroke-miterlimit:10;stroke-dasharray:none;stroke-opacity:1"
       id="path110" /><path
       inkscape:connector-curvature="0"
       d="M 67.1127,29.6385 65.097,21.4499"
       style="fill:none;stroke:#000000;stroke-width:0.94484997;stroke-linecap:butt;stroke-linejoin:miter;stroke-miterlimit:10;stroke-dasharray:none;stroke-opacity:1"
       id="path112" /><path
       inkscape:connector-curvature="0"
       d="m 52.877,29.6385 14.2357,0"
       style="fill:none;stroke:#000000;stroke-width:0.94484997;stroke-linecap:butt;stroke-linejoin:miter;stroke-miterlimit:10;stroke-dasharray:none;stroke-opacity:1"
       id="path114" /><path
       inkscape:connector-curvature="0"
       d="M 54.8927,29.6385 52.877,21.4499"
       style="fill:none;stroke:#000000;stroke-width:0.94484997;stroke-linecap:butt;stroke-linejoin:miter;stroke-miterlimit:10;stroke-dasharray:none;stroke-opacity:1"
       id="path116" /><path
       inkscape:connector-curvature="0"
       d="m 67.5537,58.488 0,28.5344"
       style="fill:none;stroke:#000000;stroke-width:0.94484997;stroke-linecap:butt;stroke-linejoin:miter;stroke-miterlimit:10;stroke-dasharray:none;stroke-opacity:1"
       id="path118" /><path
       inkscape:connector-curvature="0"
       d="m 51.317365,58.188165 0,28.4715"
       style="fill:none;stroke:#000000;stroke-width:0.94484997;stroke-linecap:butt;stroke-linejoin:miter;stroke-miterlimit:10;stroke-dasharray:none;stroke-opacity:1"
       id="path120" /><path
       style="fill:none;stroke:#000000;stroke-width:0.99999994;stroke-linecap:butt;stroke-linejoin:miter;stroke-miterlimit:4;stroke-dasharray:none;stroke-opacity:1;marker-start:url(#Arrow1Mstart);marker-end:url(#Arrow1Mend)"
       d="m 76.544231,29.309762 -6.762925,0.530537 -9.898609,0.02773 0,8.095469 0,9.442187"
       id="path3097"
       inkscape:connector-curvature="0"
       sodipodi:nodetypes="cccsc" /><g
       transform="matrix(1.1693035,0,0,-1.1693035,-186.11792,178.8622)"
       ns0:text="$x_0$\n"
       ns0:preamble=""
       id="g4942"><defs
         id="defs4944"><g
           id="g4946"><symbol
             style="overflow:visible"
             overflow="visible"
             id="textext-cf9b9b78-0"><path
               inkscape:connector-curvature="0"
               style="stroke:none"
               d=""
               id="path4949" /></symbol><symbol
             style="overflow:visible"
             overflow="visible"
             id="textext-cf9b9b78-1"><path
               inkscape:connector-curvature="0"
               style="stroke:none"
               d="M 3.328125,-3.015625 C 3.390625,-3.265625 3.625,-4.1875 4.3125,-4.1875 c 0.046875,0 0.296875,0 0.5,0.125 C 4.53125,-4 4.34375,-3.765625 4.34375,-3.515625 c 0,0.15625 0.109375,0.34375 0.375,0.34375 0.21875,0 0.53125,-0.171875 0.53125,-0.578125 0,-0.515625 -0.578125,-0.65625 -0.921875,-0.65625 -0.578125,0 -0.921875,0.53125 -1.046875,0.75 -0.25,-0.65625 -0.78125,-0.75 -1.078125,-0.75 -1.03125,0 -1.609375,1.28125 -1.609375,1.53125 0,0.109375 0.109375,0.109375 0.125,0.109375 0.078125,0 0.109375,-0.03125 0.125,-0.109375 0.34375,-1.0625 1,-1.3125 1.34375,-1.3125 0.1875,0 0.53125,0.09375 0.53125,0.671875 0,0.3125 -0.171875,0.96875 -0.53125,2.375 -0.15625,0.609375 -0.515625,1.03125 -0.953125,1.03125 -0.0625,0 -0.28125,0 -0.5,-0.125 0.25,-0.0625 0.46875,-0.265625 0.46875,-0.546875 0,-0.265625 -0.21875,-0.34375 -0.359375,-0.34375 -0.3125,0 -0.546875,0.25 -0.546875,0.578125 0,0.453125 0.484375,0.65625 0.921875,0.65625 0.671875,0 1.03125,-0.703125 1.046875,-0.75 0.125,0.359375 0.484375,0.75 1.078125,0.75 1.03125,0 1.59375,-1.28125 1.59375,-1.53125 0,-0.109375 -0.078125,-0.109375 -0.109375,-0.109375 -0.09375,0 -0.109375,0.046875 -0.140625,0.109375 -0.328125,1.078125 -1,1.3125 -1.3125,1.3125 -0.390625,0 -0.546875,-0.3125 -0.546875,-0.65625 0,-0.21875 0.046875,-0.4375 0.15625,-0.875 z"
               id="path4952" /></symbol><symbol
             style="overflow:visible"
             overflow="visible"
             id="textext-cf9b9b78-2"><path
               inkscape:connector-curvature="0"
               style="stroke:none"
               d=""
               id="path4955" /></symbol><symbol
             style="overflow:visible"
             overflow="visible"
             id="textext-cf9b9b78-3"><path
               inkscape:connector-curvature="0"
               style="stroke:none"
               d="M 3.59375,-2.21875 C 3.59375,-2.984375 3.5,-3.546875 3.1875,-4.03125 2.96875,-4.34375 2.53125,-4.625 1.984375,-4.625 c -1.625,0 -1.625,1.90625 -1.625,2.40625 0,0.5 0,2.359375 1.625,2.359375 1.609375,0 1.609375,-1.859375 1.609375,-2.359375 z M 1.984375,-0.0625 c -0.328125,0 -0.75,-0.1875 -0.890625,-0.75 C 1,-1.21875 1,-1.796875 1,-2.3125 1,-2.828125 1,-3.359375 1.09375,-3.734375 1.25,-4.28125 1.6875,-4.4375 1.984375,-4.4375 c 0.375,0 0.734375,0.234375 0.859375,0.640625 0.109375,0.375 0.125,0.875 0.125,1.484375 0,0.515625 0,1.03125 -0.09375,1.46875 -0.140625,0.640625 -0.609375,0.78125 -0.890625,0.78125 z"
               id="path4958" /></symbol></g></defs><g
         id="textext-cf9b9b78-4"><g
           style="fill:#000000;fill-opacity:1"
           id="g4961"><use
             height="221.25"
             width="272.5"
             xlink:href="#textext-cf9b9b78-1"
             x="223.43201"
             y="134.765"
             id="use4963" /></g><g
           style="fill:#000000;fill-opacity:1"
           id="g4965"><use
             height="221.25"
             width="272.5"
             xlink:href="#textext-cf9b9b78-3"
             x="229.12601"
             y="136.259"
             id="use4967" /></g></g></g><g
       ns0:text="$z_0$\n\n"
       ns0:preamble=""
       transform="matrix(1.1693035,0,0,-1.1693035,-198.76096,199.56183)"
       id="g5496"><defs
         id="defs5498"><g
           id="g5500"><symbol
             style="overflow:visible"
             overflow="visible"
             id="textext-d946a87a-0"><path
               inkscape:connector-curvature="0"
               style="stroke:none"
               d=""
               id="path5503" /></symbol><symbol
             style="overflow:visible"
             overflow="visible"
             id="textext-d946a87a-1"><path
               inkscape:connector-curvature="0"
               style="stroke:none"
               d="m 1.328125,-0.828125 c 0.53125,-0.578125 0.828125,-0.828125 1.1875,-1.140625 0,0 0.609375,-0.53125 0.96875,-0.890625 C 4.4375,-3.78125 4.65625,-4.265625 4.65625,-4.3125 c 0,-0.09375 -0.09375,-0.09375 -0.109375,-0.09375 -0.078125,0 -0.09375,0.015625 -0.15625,0.109375 -0.296875,0.484375 -0.5,0.640625 -0.734375,0.640625 -0.25,0 -0.359375,-0.15625 -0.515625,-0.328125 -0.1875,-0.21875 -0.359375,-0.421875 -0.6875,-0.421875 -0.75,0 -1.203125,0.921875 -1.203125,1.140625 0,0.046875 0.03125,0.109375 0.109375,0.109375 0.09375,0 0.109375,-0.046875 0.140625,-0.109375 0.1875,-0.46875 0.765625,-0.46875 0.84375,-0.46875 0.203125,0 0.390625,0.0625 0.625,0.140625 0.40625,0.15625 0.515625,0.15625 0.765625,0.15625 -0.359375,0.421875 -1.1875,1.140625 -1.375,1.296875 l -0.90625,0.84375 C 0.78125,-0.625 0.421875,-0.0625 0.421875,0.015625 c 0,0.09375 0.109375,0.09375 0.125,0.09375 0.078125,0 0.09375,-0.015625 0.15625,-0.125 0.234375,-0.359375 0.53125,-0.625 0.859375,-0.625 0.21875,0 0.328125,0.09375 0.578125,0.375 0.15625,0.21875 0.34375,0.375 0.625,0.375 1,0 1.578125,-1.265625 1.578125,-1.53125 0,-0.046875 -0.046875,-0.109375 -0.125,-0.109375 -0.09375,0 -0.109375,0.0625 -0.140625,0.140625 C 3.84375,-0.75 3.203125,-0.5625 2.875,-0.5625 c -0.1875,0 -0.375,-0.0625 -0.578125,-0.125 -0.34375,-0.125 -0.5,-0.171875 -0.703125,-0.171875 -0.015625,0 -0.171875,0 -0.265625,0.03125 z"
               id="path5506" /></symbol><symbol
             style="overflow:visible"
             overflow="visible"
             id="textext-d946a87a-2"><path
               inkscape:connector-curvature="0"
               style="stroke:none"
               d=""
               id="path5509" /></symbol><symbol
             style="overflow:visible"
             overflow="visible"
             id="textext-d946a87a-3"><path
               inkscape:connector-curvature="0"
               style="stroke:none"
               d="M 3.59375,-2.21875 C 3.59375,-2.984375 3.5,-3.546875 3.1875,-4.03125 2.96875,-4.34375 2.53125,-4.625 1.984375,-4.625 c -1.625,0 -1.625,1.90625 -1.625,2.40625 0,0.5 0,2.359375 1.625,2.359375 1.609375,0 1.609375,-1.859375 1.609375,-2.359375 z M 1.984375,-0.0625 c -0.328125,0 -0.75,-0.1875 -0.890625,-0.75 C 1,-1.21875 1,-1.796875 1,-2.3125 1,-2.828125 1,-3.359375 1.09375,-3.734375 1.25,-4.28125 1.6875,-4.4375 1.984375,-4.4375 c 0.375,0 0.734375,0.234375 0.859375,0.640625 0.109375,0.375 0.125,0.875 0.125,1.484375 0,0.515625 0,1.03125 -0.09375,1.46875 -0.140625,0.640625 -0.609375,0.78125 -0.890625,0.78125 z"
               id="path5512" /></symbol></g></defs><g
         id="textext-d946a87a-4"><g
           style="fill:#000000;fill-opacity:1"
           id="g5515"><use
             height="221.25"
             width="272.5"
             xlink:href="#textext-d946a87a-1"
             x="223.43201"
             y="134.765"
             id="use5517" /></g><g
           style="fill:#000000;fill-opacity:1"
           id="g5519"><use
             height="221.25"
             width="272.5"
             xlink:href="#textext-d946a87a-3"
             x="228.065"
             y="136.259"
             id="use5521" /></g></g></g><g
       id="g5818"
       transform="matrix(1.1693035,0,0,-1.1693035,-186.8429,215.52957)"
       ns0:preamble=""
       ns0:text="$q_1$\n\n\n"><defs
         id="defs5820"><g
           id="g5822"><symbol
             id="textext-c36103d8-0"
             overflow="visible"
             style="overflow:visible"><path
               id="path5825"
               d=""
               style="stroke:none"
               inkscape:connector-curvature="0" /></symbol><symbol
             id="textext-c36103d8-1"
             overflow="visible"
             style="overflow:visible"><path
               id="path5828"
               d="m 4.5,-4.296875 c 0,-0.046875 -0.03125,-0.09375 -0.09375,-0.09375 -0.109375,0 -0.515625,0.390625 -0.671875,0.6875 C 3.515625,-4.25 3.125,-4.40625 2.796875,-4.40625 c -1.171875,0 -2.390625,1.46875 -2.390625,2.921875 0,0.96875 0.578125,1.59375 1.3125,1.59375 0.421875,0 0.8125,-0.234375 1.171875,-0.59375 -0.09375,0.34375 -0.421875,1.6875 -0.453125,1.78125 -0.078125,0.28125 -0.15625,0.3125 -0.71875,0.328125 -0.125,0 -0.21875,0 -0.21875,0.203125 0,0 0,0.109375 0.125,0.109375 0.3125,0 0.671875,-0.03125 1,-0.03125 0.328125,0 0.6875,0.03125 1.03125,0.03125 0.046875,0 0.171875,0 0.171875,-0.203125 C 3.828125,1.625 3.734375,1.625 3.5625,1.625 3.09375,1.625 3.09375,1.5625 3.09375,1.46875 3.09375,1.390625 3.109375,1.328125 3.125,1.25 Z m -2.75,4.1875 c -0.609375,0 -0.640625,-0.765625 -0.640625,-0.9375 0,-0.484375 0.28125,-1.5625 0.453125,-1.984375 0.3125,-0.734375 0.828125,-1.15625 1.234375,-1.15625 0.65625,0 0.796875,0.8125 0.796875,0.875 0,0.0625 -0.546875,2.25 -0.578125,2.28125 C 2.859375,-0.75 2.296875,-0.109375 1.75,-0.109375 Z"
               style="stroke:none"
               inkscape:connector-curvature="0" /></symbol><symbol
             id="textext-c36103d8-2"
             overflow="visible"
             style="overflow:visible"><path
               id="path5831"
               d=""
               style="stroke:none"
               inkscape:connector-curvature="0" /></symbol><symbol
             id="textext-c36103d8-3"
             overflow="visible"
             style="overflow:visible"><path
               id="path5834"
               d="m 2.328125,-4.4375 c 0,-0.1875 0,-0.1875 -0.203125,-0.1875 -0.453125,0.4375 -1.078125,0.4375 -1.359375,0.4375 l 0,0.25 c 0.15625,0 0.625,0 1,-0.1875 l 0,3.546875 c 0,0.234375 0,0.328125 -0.6875,0.328125 l -0.265625,0 0,0.25 c 0.125,0 0.984375,-0.03125 1.234375,-0.03125 0.21875,0 1.09375,0.03125 1.25,0.03125 l 0,-0.25 -0.265625,0 c -0.703125,0 -0.703125,-0.09375 -0.703125,-0.328125 z"
               style="stroke:none"
               inkscape:connector-curvature="0" /></symbol></g></defs><g
         id="textext-c36103d8-4"><g
           id="g5837"
           style="fill:#000000;fill-opacity:1"><use
             id="use5839"
             y="134.765"
             x="223.43201"
             xlink:href="#textext-c36103d8-1"
             width="272.5"
             height="221.25" /></g><g
           id="g5841"
           style="fill:#000000;fill-opacity:1"><use
             id="use5843"
             y="136.259"
             x="227.88"
             xlink:href="#textext-c36103d8-3"
             width="272.5"
             height="221.25" /></g></g></g><g
       ns0:text="$q_2$\n\n\n\n"
       ns0:preamble=""
       transform="matrix(1.1693035,0,0,-1.1693035,-193.30975,326.96444)"
       id="g6172"><defs
         id="defs6174"><g
           id="g6176"><symbol
             overflow="visible"
             id="textext-e8fd2115-0"
             style="overflow:visible"><path
               style="stroke:none"
               d=""
               id="path6179"
               inkscape:connector-curvature="0" /></symbol><symbol
             overflow="visible"
             id="textext-e8fd2115-1"
             style="overflow:visible"><path
               style="stroke:none"
               d="m 4.5,-4.296875 c 0,-0.046875 -0.03125,-0.09375 -0.09375,-0.09375 -0.109375,0 -0.515625,0.390625 -0.671875,0.6875 C 3.515625,-4.25 3.125,-4.40625 2.796875,-4.40625 c -1.171875,0 -2.390625,1.46875 -2.390625,2.921875 0,0.96875 0.578125,1.59375 1.3125,1.59375 0.421875,0 0.8125,-0.234375 1.171875,-0.59375 -0.09375,0.34375 -0.421875,1.6875 -0.453125,1.78125 -0.078125,0.28125 -0.15625,0.3125 -0.71875,0.328125 -0.125,0 -0.21875,0 -0.21875,0.203125 0,0 0,0.109375 0.125,0.109375 0.3125,0 0.671875,-0.03125 1,-0.03125 0.328125,0 0.6875,0.03125 1.03125,0.03125 0.046875,0 0.171875,0 0.171875,-0.203125 C 3.828125,1.625 3.734375,1.625 3.5625,1.625 3.09375,1.625 3.09375,1.5625 3.09375,1.46875 3.09375,1.390625 3.109375,1.328125 3.125,1.25 Z m -2.75,4.1875 c -0.609375,0 -0.640625,-0.765625 -0.640625,-0.9375 0,-0.484375 0.28125,-1.5625 0.453125,-1.984375 0.3125,-0.734375 0.828125,-1.15625 1.234375,-1.15625 0.65625,0 0.796875,0.8125 0.796875,0.875 0,0.0625 -0.546875,2.25 -0.578125,2.28125 C 2.859375,-0.75 2.296875,-0.109375 1.75,-0.109375 Z"
               id="path6182"
               inkscape:connector-curvature="0" /></symbol><symbol
             overflow="visible"
             id="textext-e8fd2115-2"
             style="overflow:visible"><path
               style="stroke:none"
               d=""
               id="path6185"
               inkscape:connector-curvature="0" /></symbol><symbol
             overflow="visible"
             id="textext-e8fd2115-3"
             style="overflow:visible"><path
               style="stroke:none"
               d="m 3.515625,-1.265625 -0.234375,0 c -0.015625,0.15625 -0.09375,0.5625 -0.1875,0.625 -0.046875,0.046875 -0.578125,0.046875 -0.6875,0.046875 l -1.28125,0 c 0.734375,-0.640625 0.984375,-0.84375 1.390625,-1.171875 0.515625,-0.40625 1,-0.84375 1,-1.5 0,-0.84375 -0.734375,-1.359375 -1.625,-1.359375 -0.859375,0 -1.453125,0.609375 -1.453125,1.25 0,0.34375 0.296875,0.390625 0.375,0.390625 0.15625,0 0.359375,-0.125 0.359375,-0.375 0,-0.125 -0.046875,-0.375 -0.40625,-0.375 C 0.984375,-4.21875 1.453125,-4.375 1.78125,-4.375 c 0.703125,0 1.0625,0.546875 1.0625,1.109375 0,0.609375 -0.4375,1.078125 -0.65625,1.328125 L 0.515625,-0.265625 C 0.4375,-0.203125 0.4375,-0.1875 0.4375,0 l 2.875,0 z"
               id="path6188"
               inkscape:connector-curvature="0" /></symbol></g></defs><g
         id="textext-e8fd2115-4"><g
           style="fill:#000000;fill-opacity:1"
           id="g6191"><use
             xlink:href="#textext-e8fd2115-1"
             x="223.43201"
             y="134.765"
             id="use6193"
             width="100%"
             height="100%" /></g><g
           style="fill:#000000;fill-opacity:1"
           id="g6195"><use
             xlink:href="#textext-e8fd2115-3"
             x="227.88"
             y="136.259"
             id="use6197"
             width="100%"
             height="100%" /></g></g></g><g
       id="g6558"
       transform="matrix(1.1693035,0,0,-1.1693035,-179.87078,232.17863)"
       ns0:preamble=""
       ns0:text="$q_3$\n\n\n\n\n"><defs
         id="defs6560"><g
           id="g6562"><symbol
             id="textext-f2555a78-0"
             overflow="visible"
             style="overflow:visible"><path
               id="path6565"
               d=""
               style="stroke:none"
               inkscape:connector-curvature="0" /></symbol><symbol
             id="textext-f2555a78-1"
             overflow="visible"
             style="overflow:visible"><path
               id="path6568"
               d="m 4.5,-4.296875 c 0,-0.046875 -0.03125,-0.09375 -0.09375,-0.09375 -0.109375,0 -0.515625,0.390625 -0.671875,0.6875 C 3.515625,-4.25 3.125,-4.40625 2.796875,-4.40625 c -1.171875,0 -2.390625,1.46875 -2.390625,2.921875 0,0.96875 0.578125,1.59375 1.3125,1.59375 0.421875,0 0.8125,-0.234375 1.171875,-0.59375 -0.09375,0.34375 -0.421875,1.6875 -0.453125,1.78125 -0.078125,0.28125 -0.15625,0.3125 -0.71875,0.328125 -0.125,0 -0.21875,0 -0.21875,0.203125 0,0 0,0.109375 0.125,0.109375 0.3125,0 0.671875,-0.03125 1,-0.03125 0.328125,0 0.6875,0.03125 1.03125,0.03125 0.046875,0 0.171875,0 0.171875,-0.203125 C 3.828125,1.625 3.734375,1.625 3.5625,1.625 3.09375,1.625 3.09375,1.5625 3.09375,1.46875 3.09375,1.390625 3.109375,1.328125 3.125,1.25 Z m -2.75,4.1875 c -0.609375,0 -0.640625,-0.765625 -0.640625,-0.9375 0,-0.484375 0.28125,-1.5625 0.453125,-1.984375 0.3125,-0.734375 0.828125,-1.15625 1.234375,-1.15625 0.65625,0 0.796875,0.8125 0.796875,0.875 0,0.0625 -0.546875,2.25 -0.578125,2.28125 C 2.859375,-0.75 2.296875,-0.109375 1.75,-0.109375 Z"
               style="stroke:none"
               inkscape:connector-curvature="0" /></symbol><symbol
             id="textext-f2555a78-2"
             overflow="visible"
             style="overflow:visible"><path
               id="path6571"
               d=""
               style="stroke:none"
               inkscape:connector-curvature="0" /></symbol><symbol
             id="textext-f2555a78-3"
             overflow="visible"
             style="overflow:visible"><path
               id="path6574"
               d="m 1.90625,-2.328125 c 0.546875,0 0.9375,0.375 0.9375,1.125 0,0.859375 -0.515625,1.125 -0.90625,1.125 -0.28125,0 -0.90625,-0.078125 -1.1875,-0.5 0.328125,0 0.40625,-0.234375 0.40625,-0.390625 0,-0.21875 -0.171875,-0.375 -0.390625,-0.375 -0.1875,0 -0.390625,0.125 -0.390625,0.40625 0,0.65625 0.71875,1.078125 1.5625,1.078125 0.96875,0 1.640625,-0.65625 1.640625,-1.34375 0,-0.546875 -0.4375,-1.09375 -1.203125,-1.25 0.71875,-0.265625 0.984375,-0.78125 0.984375,-1.21875 0,-0.546875 -0.625,-0.953125 -1.40625,-0.953125 -0.765625,0 -1.359375,0.375 -1.359375,0.9375 0,0.234375 0.15625,0.359375 0.359375,0.359375 0.21875,0 0.359375,-0.15625 0.359375,-0.34375 0,-0.203125 -0.140625,-0.359375 -0.359375,-0.375 0.25,-0.296875 0.71875,-0.375 0.984375,-0.375 0.3125,0 0.75,0.15625 0.75,0.75 0,0.296875 -0.09375,0.625 -0.28125,0.828125 -0.21875,0.265625 -0.421875,0.28125 -0.765625,0.3125 -0.171875,0.015625 -0.1875,0.015625 -0.21875,0.015625 -0.015625,0 -0.078125,0.015625 -0.078125,0.09375 0,0.09375 0.0625,0.09375 0.1875,0.09375 z"
               style="stroke:none"
               inkscape:connector-curvature="0" /></symbol></g></defs><g
         id="textext-f2555a78-4"><g
           id="g6577"
           style="fill:#000000;fill-opacity:1"><use
             id="use6579"
             y="134.765"
             x="223.43201"
             xlink:href="#textext-f2555a78-1"
             width="100%"
             height="100%" /></g><g
           id="g6581"
           style="fill:#000000;fill-opacity:1"><use
             id="use6583"
             y="136.259"
             x="227.88"
             xlink:href="#textext-f2555a78-3"
             width="100%"
             height="100%" /></g></g></g><g
       id="g3421"
       ns0:preamble=""
       ns0:text="Organe terminal\n"
       transform="matrix(1.1288307,0,0,-1.1288307,-116.26459,207.48607)"><defs
         id="defs3423"><g
           id="g3425"><symbol
             id="textext-d681ffee-0"
             overflow="visible"
             style="overflow:visible"><path
               id="path3428"
               d=""
               style="stroke:none"
               inkscape:connector-curvature="0" /></symbol><symbol
             id="textext-d681ffee-1"
             overflow="visible"
             style="overflow:visible"><path
               id="path3431"
               d="m 7.1875,-3.375 c 0,-2.03125 -1.5,-3.65625 -3.3125,-3.65625 -1.796875,0 -3.3125,1.59375 -3.3125,3.65625 0,2.046875 1.53125,3.59375 3.3125,3.59375 1.8125,0 3.3125,-1.578125 3.3125,-3.59375 z M 3.875,-0.046875 c -0.953125,0 -2.296875,-0.875 -2.296875,-3.46875 0,-2.578125 1.46875,-3.265625 2.296875,-3.265625 0.859375,0 2.28125,0.703125 2.28125,3.265625 0,2.640625 -1.359375,3.46875 -2.28125,3.46875 z"
               style="stroke:none"
               inkscape:connector-curvature="0" /></symbol><symbol
             id="textext-d681ffee-2"
             overflow="visible"
             style="overflow:visible"><path
               id="path3434"
               d="m 1.671875,-3.3125 0,-1.09375 -1.390625,0.109375 0,0.3125 c 0.703125,0 0.78125,0.0625 0.78125,0.5625 l 0,2.671875 c 0,0.4375 -0.109375,0.4375 -0.78125,0.4375 l 0,0.3125 c 0.390625,-0.015625 0.859375,-0.03125 1.140625,-0.03125 0.390625,0 0.859375,0 1.265625,0.03125 l 0,-0.3125 -0.21875,0 c -0.734375,0 -0.75,-0.109375 -0.75,-0.46875 l 0,-1.53125 c 0,-0.984375 0.421875,-1.875 1.171875,-1.875 0.0625,0 0.09375,0 0.109375,0.015625 -0.03125,0 -0.234375,0.125 -0.234375,0.390625 0,0.265625 0.21875,0.421875 0.4375,0.421875 0.171875,0 0.421875,-0.125 0.421875,-0.4375 0,-0.3125 -0.3125,-0.609375 -0.734375,-0.609375 -0.734375,0 -1.09375,0.671875 -1.21875,1.09375 z"
               style="stroke:none"
               inkscape:connector-curvature="0" /></symbol><symbol
             id="textext-d681ffee-3"
             overflow="visible"
             style="overflow:visible"><path
               id="path3437"
               d="m 2.21875,-1.71875 c -0.875,0 -0.875,-1 -0.875,-1.21875 0,-0.265625 0.015625,-0.59375 0.15625,-0.84375 0.078125,-0.109375 0.3125,-0.390625 0.71875,-0.390625 0.859375,0 0.859375,0.984375 0.859375,1.21875 0,0.265625 0,0.59375 -0.15625,0.84375 C 2.84375,-2 2.609375,-1.71875 2.21875,-1.71875 Z M 1.0625,-1.328125 c 0,-0.03125 0,-0.265625 0.15625,-0.46875 0.390625,0.28125 0.8125,0.3125 1,0.3125 0.921875,0 1.609375,-0.6875 1.609375,-1.453125 0,-0.375 -0.15625,-0.734375 -0.40625,-0.96875 C 3.78125,-4.25 4.140625,-4.296875 4.3125,-4.296875 c 0.03125,0 0.078125,0 0.109375,0.015625 C 4.3125,-4.25 4.25,-4.140625 4.25,-4.015625 c 0,0.171875 0.140625,0.28125 0.296875,0.28125 0.09375,0 0.28125,-0.0625 0.28125,-0.296875 0,-0.171875 -0.109375,-0.484375 -0.5,-0.484375 -0.203125,0 -0.640625,0.0625 -1.0625,0.46875 C 2.84375,-4.375 2.4375,-4.40625 2.21875,-4.40625 c -0.9375,0 -1.625,0.6875 -1.625,1.453125 0,0.4375 0.21875,0.8125 0.46875,1.03125 -0.125,0.140625 -0.3125,0.46875 -0.3125,0.828125 0,0.3125 0.140625,0.6875 0.453125,0.890625 -0.609375,0.15625 -0.921875,0.59375 -0.921875,0.984375 0,0.71875 0.984375,1.265625 2.203125,1.265625 1.171875,0 2.203125,-0.5 2.203125,-1.28125 0,-0.34375 -0.125,-0.859375 -0.640625,-1.140625 -0.53125,-0.265625 -1.109375,-0.265625 -1.71875,-0.265625 -0.25,0 -0.671875,0 -0.75,-0.015625 C 1.265625,-0.703125 1.0625,-1 1.0625,-1.328125 Z M 2.5,1.828125 c -1.015625,0 -1.703125,-0.515625 -1.703125,-1.046875 0,-0.453125 0.375,-0.828125 0.8125,-0.84375 l 0.59375,0 c 0.859375,0 1.96875,0 1.96875,0.84375 0,0.546875 -0.703125,1.046875 -1.671875,1.046875 z"
               style="stroke:none"
               inkscape:connector-curvature="0" /></symbol><symbol
             id="textext-d681ffee-4"
             overflow="visible"
             style="overflow:visible"><path
               id="path3440"
               d="m 3.3125,-0.75 c 0.046875,0.390625 0.3125,0.8125 0.78125,0.8125 0.21875,0 0.828125,-0.140625 0.828125,-0.953125 l 0,-0.5625 -0.25,0 0,0.5625 c 0,0.578125 -0.25,0.640625 -0.359375,0.640625 -0.328125,0 -0.375,-0.453125 -0.375,-0.5 l 0,-1.984375 c 0,-0.421875 0,-0.8125 -0.359375,-1.1875 C 3.1875,-4.3125 2.6875,-4.46875 2.21875,-4.46875 c -0.828125,0 -1.515625,0.46875 -1.515625,1.125 0,0.296875 0.203125,0.46875 0.46875,0.46875 0.28125,0 0.453125,-0.203125 0.453125,-0.453125 0,-0.125 -0.046875,-0.453125 -0.515625,-0.453125 C 1.390625,-4.140625 1.875,-4.25 2.1875,-4.25 c 0.5,0 1.0625,0.390625 1.0625,1.28125 l 0,0.359375 c -0.515625,0.03125 -1.203125,0.0625 -1.828125,0.359375 -0.75,0.34375 -1,0.859375 -1,1.296875 0,0.8125 0.96875,1.0625 1.59375,1.0625 0.65625,0 1.109375,-0.40625 1.296875,-0.859375 z M 3.25,-2.390625 l 0,1 c 0,0.9375 -0.71875,1.28125 -1.171875,1.28125 -0.484375,0 -0.890625,-0.34375 -0.890625,-0.84375 0,-0.546875 0.421875,-1.375 2.0625,-1.4375 z"
               style="stroke:none"
               inkscape:connector-curvature="0" /></symbol><symbol
             id="textext-d681ffee-5"
             overflow="visible"
             style="overflow:visible"><path
               id="path3443"
               d="m 1.09375,-3.421875 0,2.671875 c 0,0.4375 -0.109375,0.4375 -0.78125,0.4375 l 0,0.3125 c 0.359375,-0.015625 0.859375,-0.03125 1.140625,-0.03125 0.25,0 0.765625,0.015625 1.109375,0.03125 l 0,-0.3125 c -0.671875,0 -0.78125,0 -0.78125,-0.4375 l 0,-1.84375 C 1.78125,-3.625 2.5,-4.1875 3.125,-4.1875 c 0.640625,0 0.75,0.53125 0.75,1.109375 l 0,2.328125 c 0,0.4375 -0.109375,0.4375 -0.78125,0.4375 l 0,0.3125 c 0.34375,-0.015625 0.859375,-0.03125 1.125,-0.03125 0.25,0 0.78125,0.015625 1.109375,0.03125 l 0,-0.3125 c -0.515625,0 -0.765625,0 -0.765625,-0.296875 l 0,-1.90625 c 0,-0.859375 0,-1.15625 -0.3125,-1.515625 -0.140625,-0.171875 -0.46875,-0.375 -1.046875,-0.375 C 2.46875,-4.40625 2,-3.984375 1.71875,-3.359375 l 0,-1.046875 -1.40625,0.109375 0,0.3125 c 0.703125,0 0.78125,0.0625 0.78125,0.5625 z"
               style="stroke:none"
               inkscape:connector-curvature="0" /></symbol><symbol
             id="textext-d681ffee-6"
             overflow="visible"
             style="overflow:visible"><path
               id="path3446"
               d="M 1.109375,-2.515625 C 1.171875,-4 2.015625,-4.25 2.359375,-4.25 c 1.015625,0 1.125,1.34375 1.125,1.734375 z m 0,0.21875 2.78125,0 c 0.21875,0 0.25,0 0.25,-0.21875 0,-0.984375 -0.546875,-1.953125 -1.78125,-1.953125 -1.15625,0 -2.078125,1.03125 -2.078125,2.28125 0,1.328125 1.046875,2.296875 2.1875,2.296875 C 3.6875,0.109375 4.140625,-1 4.140625,-1.1875 4.140625,-1.28125 4.0625,-1.3125 4,-1.3125 c -0.078125,0 -0.109375,0.0625 -0.125,0.140625 -0.34375,1.03125 -1.25,1.03125 -1.34375,1.03125 -0.5,0 -0.890625,-0.296875 -1.125,-0.671875 -0.296875,-0.46875 -0.296875,-1.125 -0.296875,-1.484375 z"
               style="stroke:none"
               inkscape:connector-curvature="0" /></symbol><symbol
             id="textext-d681ffee-7"
             overflow="visible"
             style="overflow:visible"><path
               id="path3449"
               d="m 1.71875,-3.984375 1.4375,0 0,-0.3125 -1.4375,0 0,-1.828125 -0.25,0 c 0,0.8125 -0.296875,1.875 -1.28125,1.921875 l 0,0.21875 0.84375,0 0,2.75 c 0,1.21875 0.9375,1.34375 1.296875,1.34375 0.703125,0 0.984375,-0.703125 0.984375,-1.34375 l 0,-0.5625 -0.25,0 0,0.546875 c 0,0.734375 -0.296875,1.109375 -0.671875,1.109375 -0.671875,0 -0.671875,-0.90625 -0.671875,-1.078125 z"
               style="stroke:none"
               inkscape:connector-curvature="0" /></symbol><symbol
             id="textext-d681ffee-8"
             overflow="visible"
             style="overflow:visible"><path
               id="path3452"
               d="m 1.09375,-3.421875 0,2.671875 c 0,0.4375 -0.109375,0.4375 -0.78125,0.4375 l 0,0.3125 c 0.359375,-0.015625 0.859375,-0.03125 1.140625,-0.03125 0.25,0 0.765625,0.015625 1.109375,0.03125 l 0,-0.3125 c -0.671875,0 -0.78125,0 -0.78125,-0.4375 l 0,-1.84375 C 1.78125,-3.625 2.5,-4.1875 3.125,-4.1875 c 0.640625,0 0.75,0.53125 0.75,1.109375 l 0,2.328125 c 0,0.4375 -0.109375,0.4375 -0.78125,0.4375 l 0,0.3125 c 0.34375,-0.015625 0.859375,-0.03125 1.125,-0.03125 0.25,0 0.78125,0.015625 1.109375,0.03125 l 0,-0.3125 c -0.65625,0 -0.765625,0 -0.765625,-0.4375 l 0,-1.84375 c 0,-1.03125 0.703125,-1.59375 1.34375,-1.59375 0.625,0 0.734375,0.53125 0.734375,1.109375 l 0,2.328125 c 0,0.4375 -0.109375,0.4375 -0.78125,0.4375 l 0,0.3125 c 0.34375,-0.015625 0.859375,-0.03125 1.125,-0.03125 0.265625,0 0.78125,0.015625 1.125,0.03125 l 0,-0.3125 c -0.515625,0 -0.765625,0 -0.78125,-0.296875 l 0,-1.90625 c 0,-0.859375 0,-1.15625 -0.3125,-1.515625 -0.140625,-0.171875 -0.46875,-0.375 -1.046875,-0.375 -0.828125,0 -1.28125,0.59375 -1.4375,0.984375 C 4.390625,-4.296875 3.65625,-4.40625 3.203125,-4.40625 2.46875,-4.40625 2,-3.984375 1.71875,-3.359375 l 0,-1.046875 -1.40625,0.109375 0,0.3125 c 0.703125,0 0.78125,0.0625 0.78125,0.5625 z"
               style="stroke:none"
               inkscape:connector-curvature="0" /></symbol><symbol
             id="textext-d681ffee-9"
             overflow="visible"
             style="overflow:visible"><path
               id="path3455"
               d="M 1.765625,-4.40625 0.375,-4.296875 l 0,0.3125 c 0.640625,0 0.734375,0.0625 0.734375,0.546875 l 0,2.6875 c 0,0.4375 -0.109375,0.4375 -0.78125,0.4375 l 0,0.3125 C 0.640625,-0.015625 1.1875,-0.03125 1.421875,-0.03125 1.78125,-0.03125 2.125,-0.015625 2.46875,0 l 0,-0.3125 c -0.671875,0 -0.703125,-0.046875 -0.703125,-0.4375 z m 0.03125,-1.734375 c 0,-0.3125 -0.234375,-0.53125 -0.515625,-0.53125 -0.3125,0 -0.53125,0.265625 -0.53125,0.53125 0,0.265625 0.21875,0.53125 0.53125,0.53125 0.28125,0 0.515625,-0.21875 0.515625,-0.53125 z"
               style="stroke:none"
               inkscape:connector-curvature="0" /></symbol><symbol
             id="textext-d681ffee-10"
             overflow="visible"
             style="overflow:visible"><path
               id="path3458"
               d="m 1.765625,-6.921875 -1.4375,0.109375 0,0.3125 c 0.703125,0 0.78125,0.0625 0.78125,0.5625 l 0,5.1875 c 0,0.4375 -0.109375,0.4375 -0.78125,0.4375 l 0,0.3125 C 0.65625,-0.015625 1.1875,-0.03125 1.4375,-0.03125 c 0.25,0 0.734375,0.015625 1.109375,0.03125 l 0,-0.3125 c -0.671875,0 -0.78125,0 -0.78125,-0.4375 z"
               style="stroke:none"
               inkscape:connector-curvature="0" /></symbol></g></defs><g
         id="textext-d681ffee-11"
         transform="translate(-1.4173959,-2.8347918)"><g
           id="g3461"
           style="fill:#000000;fill-opacity:1"><use
             id="use3463"
             y="134.765"
             x="223.43201"
             xlink:href="#textext-d681ffee-1"
             width="272.5"
             height="221.25" /><use
             id="use3465"
             y="134.765"
             x="231.18091"
             xlink:href="#textext-d681ffee-2"
             width="272.5"
             height="221.25" /><use
             id="use3467"
             y="134.765"
             x="235.08327"
             xlink:href="#textext-d681ffee-3"
             width="272.5"
             height="221.25" /><use
             id="use3469"
             y="134.765"
             x="240.06456"
             xlink:href="#textext-d681ffee-4"
             width="272.5"
             height="221.25" /><use
             id="use3471"
             y="134.765"
             x="245.04587"
             xlink:href="#textext-d681ffee-5"
             width="272.5"
             height="221.25" /><use
             id="use3473"
             y="134.765"
             x="250.58109"
             xlink:href="#textext-d681ffee-6"
             width="272.5"
             height="221.25" /></g><g
           id="g3475"
           style="fill:#000000;fill-opacity:1"><use
             id="use3477"
             y="134.765"
             x="258.32602"
             xlink:href="#textext-d681ffee-7"
             width="272.5"
             height="221.25" /><use
             id="use3479"
             y="134.765"
             x="262.20047"
             xlink:href="#textext-d681ffee-6"
             width="272.5"
             height="221.25" /><use
             id="use3481"
             y="134.765"
             x="266.62784"
             xlink:href="#textext-d681ffee-2"
             width="272.5"
             height="221.25" /><use
             id="use3483"
             y="134.765"
             x="270.53018"
             xlink:href="#textext-d681ffee-8"
             width="272.5"
             height="221.25" /><use
             id="use3485"
             y="134.765"
             x="278.83203"
             xlink:href="#textext-d681ffee-9"
             width="272.5"
             height="221.25" /><use
             id="use3487"
             y="134.765"
             x="281.59964"
             xlink:href="#textext-d681ffee-5"
             width="272.5"
             height="221.25" /><use
             id="use3489"
             y="134.765"
             x="287.13486"
             xlink:href="#textext-d681ffee-4"
             width="272.5"
             height="221.25" /><use
             id="use3491"
             y="134.765"
             x="292.11615"
             xlink:href="#textext-d681ffee-10"
             width="272.5"
             height="221.25" /></g></g></g><path
       style="fill:none;fill-rule:evenodd;stroke:#000000;stroke-width:0.80000001px;stroke-linecap:butt;stroke-linejoin:miter;stroke-opacity:1"
       d="m 75.249592,154.12794 7.23711,3.9297 39.877918,-45.75292 -12.84956,-8.42079 0,0 -3.46025,-2.34803"
       id="path10887"
       inkscape:connector-curvature="0"
       sodipodi:nodetypes="cccccc" /><path
       sodipodi:nodetypes="cc"
       id="path11015"
       style="fill:none;stroke:#000000;stroke-width:0.94484991;stroke-linecap:butt;stroke-linejoin:miter;stroke-miterlimit:10;stroke-dasharray:none;stroke-opacity:1"
       d="M 75.408036,126.29888 88.949811,109.84842"
       inkscape:connector-curvature="0" /><ellipse
       style="opacity:0;fill:#000000;fill-opacity:1;fill-rule:nonzero;stroke:#000200;stroke-width:1;stroke-linecap:butt;stroke-linejoin:round;stroke-miterlimit:4;stroke-dasharray:none;stroke-dashoffset:0;stroke-opacity:1"
       id="path11276"
       cx="134.7506"
       cy="-57.388561"
       transform="scale(1,-1)"
       rx="9.4709883"
       ry="18.754433" /><ellipse
       style="opacity:0;fill:#000000;fill-opacity:1;fill-rule:nonzero;stroke:#000200;stroke-width:0.80000001;stroke-linecap:butt;stroke-linejoin:round;stroke-miterlimit:4;stroke-dasharray:none;stroke-dashoffset:0;stroke-opacity:1"
       id="path11278"
       cx="158.09987"
       cy="-122.9353"
       transform="scale(1,-1)"
       rx="16.316357"
       ry="12.096609" /><path
       style="opacity:0;fill:#000000;fill-opacity:1;fill-rule:nonzero;stroke:#000200;stroke-width:0.80000001;stroke-linecap:butt;stroke-linejoin:round;stroke-miterlimit:4;stroke-dasharray:none;stroke-dashoffset:0;stroke-opacity:1"
       id="path11282"
       transform="scale(1,-1)"
       sodipodi:type="arc"
       sodipodi:cx="175.1664"
       sodipodi:cy="-147.69115"
       sodipodi:rx="6.0014181"
       sodipodi:ry="11.346432"
       sodipodi:start="0"
       sodipodi:end="3.1415927"
       d="m 181.16782,-147.69115 a 6.0014181,11.346432 0 0 1 -3.00071,9.8263 6.0014181,11.346432 0 0 1 -6.00142,0 6.0014181,11.346432 0 0 1 -3.00071,-9.8263 l 6.00142,0 z" /><path
       style="opacity:1;fill:#000000;fill-opacity:1;fill-rule:nonzero;stroke:#000200;stroke-width:0.80000001;stroke-linecap:butt;stroke-linejoin:round;stroke-miterlimit:4;stroke-dasharray:none;stroke-dashoffset:0;stroke-opacity:1"
       id="path11284"
       transform="scale(1,-1)"
       sodipodi:type="arc"
       sodipodi:cx="131.62695"
       sodipodi:cy="-57.068771"
       sodipodi:rx="1.3127955"
       sodipodi:ry="1.312825"
       sodipodi:start="0"
       sodipodi:end="6.2125483"
       d="m 132.93975,-57.068771 a 1.3127955,1.312825 0 0 1 -1.28962,1.31262 1.3127955,1.312825 0 0 1 -1.33515,-1.266263 1.3127955,1.312825 0 0 1 1.24246,-1.35734 1.3127955,1.312825 0 0 1 1.37903,1.218326 l -1.30952,0.09266 z" /><path
       sodipodi:nodetypes="cc"
       id="path4591"
       style="fill:none;stroke:#000000;stroke-width:0.47242498;stroke-linecap:butt;stroke-linejoin:miter;stroke-miterlimit:10;stroke-dasharray:0.94485001, 2.83455004;stroke-dashoffset:28.34550095;stroke-opacity:1"
       d="m 59.665675,174.00145 0.82323,-52.42836"
       inkscape:connector-curvature="0" /><path
       sodipodi:nodetypes="cc"
       id="path4882"
       style="fill:none;stroke:#000000;stroke-width:0.47242501;stroke-linecap:butt;stroke-linejoin:miter;stroke-miterlimit:10;stroke-dasharray:0.94484999, 2.83454998;stroke-dashoffset:28.34550095;stroke-opacity:1"
       d="M 58.822597,29.325239 13.639877,4.3572406"
       inkscape:connector-curvature="0" /><path
       style="fill:none;fill-rule:evenodd;stroke:#000000;stroke-width:0.80000001px;stroke-linecap:butt;stroke-linejoin:miter;stroke-opacity:1;marker-start:url(#Arrow1Mstart-1);marker-end:url(#marker6762)"
       d="M 20,121.9467 20,7.9733046"
       id="path4886"
       inkscape:connector-curvature="0" /><text
       xml:space="preserve"
       style="font-style:italic;font-variant:normal;font-weight:normal;font-stretch:normal;font-size:12px;line-height:125%;font-family:'Times New Roman';-inkscape-font-specification:'Times New Roman, Italic';text-align:start;letter-spacing:0px;word-spacing:0px;writing-mode:lr-tb;text-anchor:start;fill:#000000;fill-opacity:1;stroke:none;stroke-width:1px;stroke-linecap:butt;stroke-linejoin:miter;stroke-opacity:1"
       x="22.613338"
       y="-61.973408"
       id="text4970"
       sodipodi:linespacing="125%"
       transform="scale(1,-1)"><tspan
         sodipodi:role="line"
         id="tspan4972"
         x="22.613338"
         y="-61.973408"
         style="font-style:italic;font-variant:normal;font-weight:normal;font-stretch:normal;font-size:12px;line-height:125%;font-family:'Times New Roman';-inkscape-font-specification:'Times New Roman, Italic';text-align:start;writing-mode:lr-tb;text-anchor:start">b</tspan></text>
</g></svg>